<?xml version="1.0" encoding="utf-8"?>
<!-- Generator: Adobe Illustrator 17.0.0, SVG Export Plug-In . SVG Version: 6.00 Build 0)  -->
<!DOCTYPE svg PUBLIC "-//W3C//DTD SVG 1.1//EN" "http://www.w3.org/Graphics/SVG/1.1/DTD/svg11.dtd">
<svg version="1.1" id="Layer_1" xmlns="http://www.w3.org/2000/svg" xmlns:xlink="http://www.w3.org/1999/xlink" x="0px" y="0px"
	 width="563.333px" height="164.667px" viewBox="-19.019 -21.943 563.333 164.667"
	 enable-background="new -19.019 -21.943 563.333 164.667" xml:space="preserve">
<g>
	<g>
		<g>
			<path fill="#2C2C2C" d="M168.071,47.005c-3.255-1.878-5.746-4.588-7.472-8.127c-1.727-3.54-2.589-7.777-2.589-12.716
				c0-7.428,1.901-13.207,5.703-17.336c3.801-4.129,9.176-6.194,16.124-6.194c3.146,0,6.041,0.547,8.685,1.639
				c2.644,1.093,4.752,2.601,6.325,4.523l-3.408,5.899c-1.573-1.66-3.223-2.894-4.949-3.703c-1.727-0.808-3.944-1.213-6.653-1.213
				c-4.152,0-7.341,1.432-9.57,4.293c-2.229,2.862-3.343,6.893-3.343,12.093c0,5.157,1.147,9.199,3.441,12.126
				c2.294,2.928,5.45,4.392,9.471,4.392c1.66,0,3.015-0.12,4.063-0.361c1.049-0.239,2.075-0.644,3.081-1.212V30.75h-10.029v-7.275
				h13.896c0.743-0.787,1.573-1.18,2.491-1.18c0.874,0,1.715,0.438,2.524,1.311c0.808,0.875,1.386,1.814,1.737,2.818
				c0.087,0.262,0.131,0.459,0.131,0.59c0,0.219-0.065,0.426-0.196,0.623c-0.131,0.197-0.285,0.383-0.459,0.557
				c-0.394,0.351-0.711,0.776-0.951,1.278c-0.24,0.503-0.36,1.212-0.36,2.13v13.24c-2.841,1.792-5.473,3.071-7.898,3.834
				c-2.425,0.764-5.146,1.147-8.161,1.147C175.204,49.824,171.326,48.885,168.071,47.005z"/>
			<path fill="#2C2C2C" d="M206.546,45.432c-3.038-2.927-4.556-6.904-4.556-11.929c0-3.277,0.611-6.183,1.835-8.718
				c1.223-2.534,3.037-4.511,5.44-5.932c2.403-1.419,5.31-2.13,8.718-2.13c3.32,0,6.204,0.688,8.651,2.065s4.304,3.255,5.571,5.637
				c1.268,2.382,1.901,5.037,1.901,7.964c0,1.442-0.471,2.546-1.409,3.31c-0.94,0.765-2.24,1.147-3.9,1.147h-18.222
				c0,1.792,0.775,3.234,2.327,4.326c1.55,1.093,3.572,1.639,6.063,1.639c2.054,0,3.791-0.295,5.211-0.885s2.677-1.431,3.77-2.523
				l4.325,4.588c-1.441,1.835-3.3,3.267-5.571,4.293c-2.272,1.026-4.85,1.54-7.734,1.54
				C213.723,49.824,209.583,48.36,206.546,45.432z M225.521,30.095c0-1.922-0.711-3.484-2.13-4.687
				c-1.421-1.201-3.223-1.802-5.407-1.802c-2.098,0-3.857,0.601-5.277,1.802c-1.42,1.203-2.13,2.764-2.13,4.687H225.521z"/>
			<path fill="#2C2C2C" d="M246.004,47.202c-1.639-1.704-2.458-4.151-2.458-7.341V24.327h-5.833l1.835-6.948h4.13v-6.62l8.39-3.867
				v10.487h8.521l-1.704,6.948h-6.686v15.73c0,1.006,0.218,1.727,0.655,2.163c0.437,0.438,1.114,0.655,2.032,0.655
				c1.092,0,2.075-0.218,2.949-0.655l2.032,6.227c-0.744,0.351-1.76,0.656-3.048,0.918c-1.289,0.262-2.523,0.393-3.703,0.393
				C250.013,49.758,247.643,48.906,246.004,47.202z"/>
			<path fill="#2C2C2C" d="M299.258,31.602L284.052,3.287h9.504l9.963,20.319l9.963-20.319h9.504L307.78,31.602v17.566h-8.521
				V31.602z"/>
			<path fill="#2C2C2C" d="M328.392,47.825c-2.469-1.376-4.369-3.32-5.702-5.833c-1.333-2.512-1.999-5.407-1.999-8.685
				s0.666-6.171,1.999-8.685c1.333-2.512,3.233-4.457,5.702-5.833s5.343-2.065,8.62-2.065c3.276,0,6.149,0.688,8.619,2.065
				c2.468,1.376,4.368,3.321,5.702,5.833c1.332,2.513,1.999,5.407,1.999,8.685s-0.667,6.172-1.999,8.685
				c-1.334,2.513-3.234,4.457-5.702,5.833c-2.47,1.376-5.343,2.065-8.619,2.065C333.735,49.89,330.861,49.201,328.392,47.825z
				 M342.649,40.352c1.267-1.682,1.9-4.031,1.9-7.046s-0.634-5.363-1.9-7.046c-1.269-1.682-3.146-2.524-5.637-2.524
				c-2.491,0-4.37,0.842-5.638,2.524c-1.268,1.683-1.9,4.031-1.9,7.046s0.633,5.364,1.9,7.046c1.268,1.683,3.146,2.523,5.638,2.523
				C339.503,42.876,341.38,42.035,342.649,40.352z"/>
			<path fill="#2C2C2C" d="M365.589,48.152c-1.88-1.114-3.354-2.708-4.425-4.785c-1.071-2.075-1.605-4.467-1.605-7.177V17.379h8.651
				V36.19c0,4.414,2.075,6.62,6.227,6.62c2.185,0,3.823-0.731,4.916-2.196c1.092-1.463,1.639-3.397,1.639-5.801V17.379h8.652v22.875
				c0,1.311,0.099,2.448,0.295,3.408c0.196,0.962,0.578,2.032,1.146,3.212l-7.668,2.949c-0.394-0.698-0.754-1.529-1.082-2.491
				c-0.327-0.96-0.514-1.791-0.557-2.491c-2.186,3.321-5.419,4.981-9.701,4.981C369.63,49.824,367.467,49.266,365.589,48.152z"/>
			<path fill="#2C2C2C" d="M398.427,26.293c0-1.311-0.099-2.447-0.295-3.409c-0.197-0.96-0.58-2.032-1.147-3.211l7.669-2.95
				c0.394,0.7,0.754,1.53,1.081,2.491c0.328,0.962,0.514,1.792,0.558,2.491c1.18-1.66,2.414-2.905,3.703-3.736
				c1.288-0.83,2.763-1.246,4.425-1.246c1.311,0,2.457,0.175,3.44,0.524c0.983,0.35,2.021,0.94,3.113,1.77l-3.211,5.965
				c-0.744-0.437-1.421-0.754-2.032-0.95c-0.612-0.197-1.289-0.295-2.032-0.295c-2.272,0-3.943,0.7-5.014,2.098
				c-1.071,1.399-1.606,3.518-1.606,6.358v16.976h-8.651V26.293z"/>
			<path fill="#2C2C2C" d="M159.747,107.19c-0.765-0.721-1.301-1.562-1.606-2.523c-0.088-0.263-0.131-0.459-0.131-0.59
				c0-0.218,0.065-0.426,0.197-0.623c0.131-0.196,0.284-0.382,0.459-0.557c0.393-0.35,0.709-0.775,0.95-1.278
				c0.24-0.502,0.36-1.213,0.36-2.13V61.735h8.783v38.278h19.664v7.603h-23.531c-0.787,0.437-1.683,0.655-2.688,0.655
				C161.33,108.271,160.511,107.911,159.747,107.19z"/>
			<path fill="#2C2C2C" d="M199.73,106.272c-2.469-1.376-4.37-3.32-5.703-5.833c-1.333-2.513-1.999-5.407-1.999-8.685
				s0.666-6.172,1.999-8.685c1.333-2.513,3.233-4.457,5.703-5.834c2.468-1.376,5.342-2.064,8.619-2.064s6.15,0.688,8.619,2.064
				c2.469,1.377,4.369,3.321,5.703,5.834c1.332,2.513,1.999,5.407,1.999,8.685s-0.667,6.172-1.999,8.685
				c-1.334,2.513-3.234,4.457-5.703,5.833c-2.469,1.377-5.342,2.065-8.619,2.065S202.198,107.649,199.73,106.272z M213.986,98.801
				c1.267-1.682,1.901-4.031,1.901-7.046c0-3.016-0.634-5.363-1.901-7.046c-1.268-1.682-3.146-2.524-5.637-2.524
				s-4.37,0.843-5.637,2.524c-1.268,1.683-1.901,4.03-1.901,7.046c0,3.015,0.633,5.364,1.901,7.046
				c1.267,1.683,3.146,2.523,5.637,2.523S212.718,100.483,213.986,98.801z"/>
			<path fill="#2C2C2C" d="M233.977,119.021l2.557-6.227c2.664,1.397,5.658,2.097,8.979,2.097c3.277,0,5.572-0.809,6.883-2.425
				c1.311-1.617,1.967-3.911,1.967-6.882v-1.771c-1.094,1.181-2.404,2.109-3.934,2.786c-1.529,0.678-3.211,1.016-5.047,1.016
				c-4.457,0-8.041-1.409-10.749-4.228c-2.71-2.818-4.064-6.827-4.064-12.027c0-3.451,0.611-6.401,1.836-8.849
				c1.223-2.446,2.905-4.304,5.048-5.571c2.139-1.267,4.609-1.9,7.406-1.9c4.193,0,7.711,1.639,10.553,4.915
				c0.217-1.922,0.961-3.582,2.229-4.981l7.012,2.753c-0.568,1.006-0.982,2.011-1.244,3.016c-0.262,1.006-0.393,2.294-0.393,3.867
				v20.188c0,5.593-1.498,9.842-4.49,12.749c-2.994,2.905-7.332,4.358-13.012,4.358
				C241.581,121.905,237.735,120.943,233.977,119.021z M252.526,98.08c1.311-1.771,1.967-3.922,1.967-6.457v-0.655
				c0-2.753-0.668-4.948-2-6.587s-3.287-2.458-5.865-2.458c-2.404,0-4.24,0.798-5.506,2.393c-1.268,1.596-1.9,3.943-1.9,7.046
				c0,3.234,0.643,5.604,1.934,7.111c1.287,1.508,3.199,2.262,5.734,2.262C249.336,100.734,251.215,99.849,252.526,98.08z"/>
			<path fill="#2C2C2C" d="M278.252,106.272c-2.469-1.376-4.369-3.32-5.702-5.833s-1.999-5.407-1.999-8.685s0.666-6.172,1.999-8.685
				s3.233-4.457,5.702-5.834c2.469-1.376,5.343-2.064,8.62-2.064c3.276,0,6.149,0.688,8.619,2.064
				c2.468,1.377,4.368,3.321,5.702,5.834c1.332,2.513,1.999,5.407,1.999,8.685s-0.667,6.172-1.999,8.685
				c-1.334,2.513-3.234,4.457-5.702,5.833c-2.47,1.377-5.343,2.065-8.619,2.065C283.594,108.338,280.72,107.649,278.252,106.272z
				 M292.508,98.801c1.267-1.682,1.9-4.031,1.9-7.046c0-3.016-0.634-5.363-1.9-7.046c-1.269-1.682-3.146-2.524-5.637-2.524
				c-2.491,0-4.37,0.843-5.638,2.524c-1.268,1.683-1.9,4.03-1.9,7.046c0,3.015,0.633,5.364,1.9,7.046
				c1.268,1.683,3.146,2.523,5.638,2.523C289.362,101.324,291.24,100.483,292.508,98.801z"/>
			<path fill="#2C2C2C" d="M329.279,69.862c0-0.917-0.121-1.627-0.36-2.13c-0.241-0.501-0.558-0.928-0.951-1.278
				c-0.175-0.174-0.327-0.36-0.459-0.557c-0.131-0.197-0.196-0.404-0.196-0.623c0-0.131,0.043-0.328,0.131-0.59
				c0.35-1.004,0.929-1.943,1.737-2.818c0.808-0.874,1.648-1.311,2.523-1.311c0.961,0,1.791,0.393,2.491,1.18h9.045
				c4.719,0,8.805,0.95,12.257,2.851c3.451,1.901,6.096,4.567,7.931,7.997c1.835,3.431,2.753,7.418,2.753,11.962
				c0,7.21-1.966,12.857-5.899,16.943c-3.933,4.086-9.504,6.128-16.714,6.128h-14.288V69.862z M343.567,100.014
				c4.632,0,8.072-1.278,10.323-3.835c2.251-2.556,3.376-6.434,3.376-11.634c0-4.938-1.202-8.706-3.604-11.307
				c-2.404-2.6-5.943-3.9-10.619-3.9h-4.981v30.676H343.567z"/>
			<path fill="#2C2C2C" d="M376.634,103.881c-3.038-2.928-4.556-6.904-4.556-11.93c0-3.277,0.611-6.183,1.835-8.718
				c1.224-2.533,3.037-4.511,5.44-5.932c2.403-1.419,5.31-2.13,8.718-2.13c3.32,0,6.204,0.688,8.651,2.064
				c2.447,1.377,4.304,3.256,5.572,5.637c1.267,2.383,1.9,5.037,1.9,7.964c0,1.442-0.47,2.546-1.409,3.311
				c-0.94,0.765-2.24,1.146-3.9,1.146h-18.221c0,1.792,0.774,3.234,2.326,4.326c1.551,1.093,3.572,1.639,6.063,1.639
				c2.053,0,3.79-0.295,5.211-0.885c1.419-0.59,2.676-1.431,3.769-2.523l4.326,4.588c-1.442,1.835-3.3,3.267-5.571,4.293
				c-2.272,1.026-4.851,1.54-7.734,1.54C383.811,108.271,379.67,106.808,376.634,103.881z M395.609,88.543
				c0-1.923-0.71-3.484-2.13-4.687c-1.42-1.201-3.223-1.803-5.407-1.803c-2.098,0-3.857,0.602-5.276,1.803
				c-1.421,1.202-2.13,2.764-2.13,4.687H395.609z"/>
			<path fill="#2C2C2C" d="M415.634,106.6c-2.731-1.114-5.124-2.72-7.178-4.817l4.851-5.179c1.485,1.573,3.168,2.775,5.047,3.605
				c1.878,0.83,3.889,1.245,6.03,1.245c1.354,0,2.381-0.207,3.08-0.622s1.049-0.994,1.049-1.737c0-0.567-0.143-1.049-0.426-1.442
				c-0.285-0.393-0.907-0.808-1.868-1.245c-0.962-0.437-2.425-0.961-4.392-1.573c-4.326-1.354-7.385-2.828-9.176-4.424
				c-1.793-1.595-2.688-3.681-2.688-6.26c0-2.84,1.136-5.047,3.408-6.62c2.271-1.573,5.462-2.359,9.569-2.359
				c4.632,0,8.805,1.311,12.52,3.933l-2.95,5.637c-1.835-1.005-3.496-1.714-4.981-2.13c-1.485-0.415-3.037-0.623-4.653-0.623
				c-1.442,0-2.513,0.187-3.212,0.558s-1.049,0.907-1.049,1.605c0,0.568,0.186,1.038,0.558,1.409
				c0.371,0.372,1.016,0.754,1.934,1.147c0.918,0.393,2.315,0.874,4.194,1.441c2.972,0.918,5.298,1.858,6.981,2.818
				c1.682,0.962,2.916,2.098,3.703,3.408c0.786,1.312,1.18,2.95,1.18,4.916c0,2.71-1.137,4.884-3.408,6.522
				c-2.272,1.638-5.397,2.457-9.373,2.457C421.281,108.271,418.364,107.715,415.634,106.6z"/>
			<path fill="#2C2C2C" d="M445.718,70.649c-1.114-1.049-1.671-2.381-1.671-3.998c0-1.616,0.557-2.95,1.671-3.999
				s2.523-1.573,4.229-1.573c1.704,0,3.113,0.524,4.228,1.573s1.671,2.382,1.671,3.999c0,1.617-0.557,2.949-1.671,3.998
				s-2.523,1.573-4.228,1.573C448.242,72.223,446.833,71.698,445.718,70.649z M445.621,75.827h8.651v31.789h-8.651V75.827z"/>
			<path fill="#2C2C2C" d="M466.135,119.021l2.557-6.227c2.665,1.397,5.658,2.097,8.979,2.097c3.277,0,5.571-0.809,6.882-2.425
				c1.312-1.617,1.967-3.911,1.967-6.882v-1.771c-1.093,1.181-2.403,2.109-3.933,2.786c-1.53,0.678-3.212,1.016-5.047,1.016
				c-4.457,0-8.041-1.409-10.75-4.228s-4.063-6.827-4.063-12.027c0-3.451,0.611-6.401,1.835-8.849
				c1.224-2.446,2.906-4.304,5.048-5.571c2.14-1.267,4.609-1.9,7.406-1.9c4.194,0,7.712,1.639,10.553,4.915
				c0.218-1.922,0.961-3.582,2.229-4.981l7.013,2.753c-0.568,1.006-0.982,2.011-1.245,3.016c-0.262,1.006-0.393,2.294-0.393,3.867
				v20.188c0,5.593-1.498,9.842-4.49,12.749c-2.993,2.905-7.331,4.358-13.011,4.358
				C473.739,121.905,469.893,120.943,466.135,119.021z M484.685,98.08c1.311-1.771,1.966-3.922,1.966-6.457v-0.655
				c0-2.753-0.667-4.948-1.999-6.587c-1.333-1.639-3.288-2.458-5.866-2.458c-2.403,0-4.239,0.798-5.506,2.393
				c-1.268,1.596-1.9,3.943-1.9,7.046c0,3.234,0.644,5.604,1.934,7.111c1.288,1.508,3.2,2.262,5.735,2.262
				C481.495,100.734,483.374,99.849,484.685,98.08z"/>
			<path fill="#2C2C2C" d="M526.077,104.176c-0.328-1.42-0.492-3.025-0.492-4.818V88.805c0-4.413-1.835-6.62-5.506-6.62
				c-2.186,0-3.943,0.853-5.276,2.557s-1.999,3.867-1.999,6.489v16.386h-8.651V84.741c0-1.311-0.099-2.446-0.295-3.408
				c-0.197-0.961-0.58-2.032-1.147-3.212l7.669-2.949c0.394,0.699,0.754,1.53,1.081,2.49c0.328,0.962,0.514,1.793,0.558,2.491
				c1.267-1.485,2.828-2.688,4.687-3.605c1.856-0.917,3.834-1.376,5.932-1.376c4.063,0,7.014,1.169,8.849,3.507
				s2.753,5.713,2.753,10.126v10.356c0,2.403,0.437,4.479,1.311,6.227l-7.865,2.884
				C526.939,106.961,526.404,105.596,526.077,104.176z"/>
		</g>
	</g>
	<g>
		<path fill="#FB047C" d="M115.59,63.41c-0.079,0.772,0.641,0.934,1.049,1.277c7.331,6.157,14.684,12.289,22.03,18.428
			c0.408,0.341,0.801,0.7,1.402,1.227c-3.21,1.038-6.224,2.015-9.24,2.987c-18.87,6.079-37.739,12.162-56.621,18.204
			c-0.431,0.138-1.101,1.015-1.538-0.084l-0.027,0.021c0.381-0.092,0.479-0.326,0.342-0.679l-0.015,0.02
			c0.278,0.058,0.37-0.159,0.471-0.337c4.184-7.371,8.365-14.743,12.547-22.116c0.077-0.047,0.155-0.09,0.236-0.13
			c5.263,0.493,10.53,0.916,15.818,1.017c0,0,0.059,0.08,0.059,0.08l-0.073-0.066c-5.322-2.906-10.862-5.37-16.302-8.037
			c-0.314-0.273-0.629-0.546-0.943-0.819c0.071-0.187,0.142-0.375,0.213-0.562c0.889-2.151,1.786-4.299,2.665-6.454
			c2.717-6.665,5.427-13.333,8.14-19.999c5.626,4.673,11.248,9.349,16.885,14.01c0.443,0.366,0.784,0.914,1.442,0.973l-0.023-0.018
			c0.103,0.345,0.224,0.656,0.67,0.355l-0.025-0.021c-0.159,0.394,0.012,0.456,0.351,0.349l-0.025-0.027
			c0.009,0.36,0.081,0.626,0.521,0.356L115.59,63.41z"/>
		<path fill="#FE9F01" d="M115.59,63.41c0,0,0.007-0.046,0.007-0.046c-0.174-0.119-0.347-0.237-0.521-0.356l0.025,0.027
			c0.01-0.244-0.088-0.379-0.351-0.349c0,0,0.025,0.021,0.025,0.021c-0.077-0.393-0.196-0.71-0.67-0.355
			c0,0,0.023,0.018,0.023,0.018c0.53-0.432-0.026-0.677-0.213-0.882c-5.5-6.034-11.018-12.052-16.532-18.073
			c-0.007-0.083-0.026-0.163-0.058-0.24c1.998-4.92,3.997-9.839,5.995-14.759c-0.088-0.049-0.177-0.098-0.265-0.148
			c-4.19,4.394-8.38,8.788-12.57,13.182c-0.324,0.162-0.648,0.325-0.972,0.487c-0.176-0.075-0.353-0.149-0.529-0.224
			c-1.728-1.482-3.446-2.975-5.187-4.443c-5.556-4.686-11.121-9.362-16.682-14.042c0.446-0.303,0.884-0.619,1.34-0.908
			c6.527-4.133,13.056-8.262,19.585-12.393c7.83-4.888,15.66-9.776,23.49-14.665c1.152-0.719,2.312-1.425,3.446-2.171
			c0.733-0.482,1.077-0.388,1.035,0.551c-0.034,0.76-0.043,1.522-0.046,2.282c-0.06,21.909-0.118,43.818-0.183,65.727
			C115.781,62.241,115.916,62.854,115.59,63.41z"/>
		<path fill="#0298F1" d="M72.671,105.448c-0.702,0.297-0.695,1.038-0.919,1.591c-3.621,8.959-7.208,17.932-10.804,26.901
			c-0.198,0.493-0.414,0.979-0.703,1.658c-0.453-0.58-0.817-1.016-1.149-1.474C45.978,115.98,32.86,97.836,19.758,79.68
			c-0.282-0.391-0.883-0.688-0.623-1.349l-0.022,0.037c4.718,0.656,9.328,1.857,13.997,2.761c4.088,0.792,8.165,1.634,12.247,2.454
			c0.084,0.09,0.168,0.18,0.252,0.27c1.224,5.059,2.448,10.118,3.671,15.177c0.439-0.747,0.55-1.466,0.648-2.187
			c0.706-5.197,1.409-10.394,2.113-15.59c0.141-0.312,0.282-0.624,0.423-0.935c0.256-0.108,0.512-0.217,0.768-0.325
			c9.482,0.825,18.978,1.45,28.483,1.943c0.029,0.05,0.065,0.096,0.108,0.136c-2.924,7.232-5.851,14.462-8.758,21.7
			c-0.124,0.308-0.442,0.663-0.092,1.04c0,0,0.015-0.02,0.015-0.02c-0.534,0.014-0.451,0.34-0.342,0.679L72.671,105.448z"/>
		<path fill="#8FC63D" d="M44.26,79.391c-7.862-0.489-15.725-0.958-23.585-1.471c-7.427-0.485-14.85-1.018-22.275-1.529
			c-3.786-0.26-7.572-0.519-11.364-0.778c-0.177-0.64,0.334-0.921,0.595-1.279c13.32-18.267,26.652-36.525,39.992-54.778
			c0.276-0.378,0.442-0.89,0.988-1.017c0.998,8.94,1.997,17.88,2.994,26.819c-0.033,0.098-0.06,0.198-0.08,0.299
			c-4.632,2.548-8.983,5.543-13.429,8.428c3.53-0.49,7.029-1.027,10.496-1.719c2.417-0.482,4.916-0.564,7.251-1.45
			c0.42-0.006,0.84-0.013,1.26-0.019c0.041,0.085,0.074,0.173,0.097,0.265c-0.099,0.227-0.017,0.379,0.199,0.474
			c0.052,0.159,0.071,0.353,0.322,0.297l-0.017-0.009c0.279,3.257,1.419,6.319,2.16,9.471C41.275,67.407,42.788,73.394,44.26,79.391
			z"/>
		<path fill="#8201A3" d="M28.902,18.291c-1.68-6.794-3.356-13.589-5.041-20.381c-0.758-3.055-1.535-6.106-2.297-9.16
			c-0.114-0.455-0.347-0.907-0.069-1.544c3.394,1.108,6.78,2.209,10.165,3.318C50.068-3.448,68.478,2.576,86.874,8.641
			c0.399,0.132,1.382-0.139,1.131,0.915c-1.927,0.847-3.865,1.673-5.78,2.546c-6.142,2.8-12.275,5.618-18.412,8.429
			c-0.096,0.005-0.19-0.004-0.283-0.026c-1.358-1.625-3.131-2.783-4.741-4.113c-2.31-1.907-4.449-4.032-6.998-5.644
			c-0.064-0.042-0.128-0.085-0.192-0.128c0.041,0.065,0.083,0.13,0.124,0.195c0.117,0.41,0.166,0.858,0.363,1.226
			c2.576,4.808,5.174,9.604,7.765,14.404c-0.098,0.317-0.198,0.635,0.099,0.91c-0.127,0.218-0.253,0.436-0.38,0.654
			c-3.177,1.952-6.373,3.874-9.528,5.862c-4.893,3.082-9.757,6.208-14.634,9.316c-0.076-0.022-0.153-0.04-0.232-0.054
			c-0.676-2.785-1.328-5.577-2.034-8.354C31.744,29.28,30.317,23.787,28.902,18.291z"/>
		<path fill="#450123" d="M44.26,79.391c-1.472-5.997-2.986-11.985-4.398-17.996c-0.741-3.151-1.88-6.214-2.159-9.471
			c0.357,0.106,0.737,0.163,1.067,0.324c5.412,2.642,10.817,5.298,16.224,7.95c-0.042,0.591-0.051,1.187-0.132,1.773
			c-0.834,6.01-1.68,12.019-2.523,18.028c-2.599-0.063-5.181-0.514-7.79-0.346C44.452,79.567,44.356,79.479,44.26,79.391z"/>
		<path fill="#8201A3" d="M44.548,79.655c2.609-0.169,5.191,0.283,7.79,0.346c0.042,0.105,0.084,0.211,0.126,0.316
			c-0.141,0.312-0.282,0.624-0.423,0.936c-1.765,1.804-3.425,3.869-6.432,2.6c-0.084-0.09-0.168-0.18-0.252-0.27
			C45.087,82.274,44.818,80.964,44.548,79.655z"/>
		<path fill="#0298F1" d="M19.135,78.33c-0.059-0.003-0.117-0.006-0.176-0.009c0.024-0.015,0.06-0.049,0.069-0.043
			c0.033,0.023,0.057,0.059,0.084,0.089C19.113,78.368,19.135,78.33,19.135,78.33z"/>
		<path fill="#020176" d="M95.802,47.387c-2.713,6.667-5.423,13.334-8.14,19.999c-0.879,2.155-1.776,4.303-2.665,6.454
			c-3.163-5.697-6.265-11.425-9.135-17.277c4.598-4.767,9.196-9.534,13.794-14.301c2.027,1.623,4.055,3.247,6.083,4.87
			C95.766,47.216,95.787,47.301,95.802,47.387z"/>
		<path fill="#0298F1" d="M75.862,56.563c2.87,5.852,5.973,11.58,9.135,17.277c-0.071,0.188-0.142,0.375-0.213,0.562
			c-0.052,0.052-0.088,0.114-0.106,0.186c-5.948-2.906-11.896-5.813-17.845-8.719c2.936-3.105,5.872-6.21,8.808-9.314
			c0,0,0.11-0.001,0.11-0.001L75.862,56.563z"/>
		<path fill="#830101" d="M85.727,75.222c5.44,2.667,10.98,5.13,16.302,8.037l0.014-0.014c-5.288-0.101-10.555-0.523-15.817-1.017
			c1.71-2.08,1.511-4.113-0.124-6.133C85.91,75.857,85.849,75.515,85.727,75.222z"/>
		<path fill="#8FC63D" d="M85.727,75.222c0.122,0.293,0.183,0.635,0.375,0.872c1.635,2.02,1.834,4.053,0.124,6.133
			c-0.081,0.04-0.16,0.083-0.236,0.13c-1.389-0.096-2.779-0.191-4.168-0.287c-0.042-0.04-0.078-0.085-0.108-0.136
			c1.142-2.387,2.089-4.852,2.965-7.346c0.018-0.072,0.053-0.134,0.106-0.186C85.098,74.676,85.413,74.949,85.727,75.222z"/>
		<polygon fill="#830101" points="102.029,83.258 102.102,83.324 102.043,83.244 		"/>
		<path fill="#FC0200" d="M66.805,23.201c0.105-0.005,0.208,0.004,0.31,0.028c5.562,4.68,11.126,9.356,16.683,14.042
			c1.74,1.467,3.458,2.961,5.187,4.443c-6.418,1.154-12.836,2.309-19.255,3.462c-0.087-0.03-0.169-0.068-0.248-0.114
			c-0.391-0.828-0.753-1.672-1.177-2.483c-2.627-5.027-5.267-10.047-7.901-15.069C62.538,26.074,64.671,24.637,66.805,23.201z"/>
		<path fill="#FB047C" d="M69.73,45.176c6.418-1.154,12.836-2.308,19.254-3.463c0.176,0.074,0.353,0.149,0.529,0.224
			c0.047,0.108,0.095,0.216,0.143,0.324c-4.598,4.767-9.196,9.534-13.794,14.301c0,0-0.11-0.009-0.11-0.009s-0.11,0.001-0.11,0.001
			C73.671,52.762,71.701,48.969,69.73,45.176z"/>
		<path fill="#01753A" d="M90.486,41.451c4.19-4.394,8.38-8.788,12.57-13.182c0.088,0.049,0.177,0.098,0.265,0.148
			c-1.998,4.92-3.997,9.839-5.995,14.759c-1.533-2.485-3.735-2.575-6.205-1.75C90.928,41.49,90.698,41.445,90.486,41.451z"/>
		<path fill="#0298F1" d="M90.486,41.451c0.213-0.006,0.442,0.039,0.636-0.025c2.469-0.825,4.672-0.735,6.205,1.75
			c0.032,0.077,0.051,0.157,0.058,0.24c-0.548,1.239-1.097,2.477-1.645,3.716c-2.028-1.623-4.055-3.246-6.083-4.869
			c-0.048-0.108-0.096-0.216-0.143-0.325C89.837,41.775,90.162,41.613,90.486,41.451z"/>
		<path fill="#01753A" d="M84.678,74.588c-0.876,2.494-1.823,4.959-2.965,7.346c-9.505-0.493-19.001-1.118-28.482-1.943
			c0.723-0.81,1.42-1.643,2.17-2.425c3.719-3.875,7.588-7.607,11.132-11.649c0.099-0.019,0.199-0.035,0.299-0.048
			C72.782,68.776,78.73,71.682,84.678,74.588z"/>
		<path fill="#8FC63D" d="M66.536,65.918c-3.544,4.042-7.414,7.774-11.133,11.649c-0.751,0.782-1.448,1.615-2.17,2.425
			c-0.257,0.109-0.513,0.217-0.769,0.325c-0.042-0.105-0.084-0.211-0.126-0.316c0.843-6.009,1.688-12.018,2.523-18.028
			c0.081-0.586,0.09-1.182,0.132-1.774c0.054-0.054,0.117-0.092,0.189-0.116c0.558,0.32,1.103,0.664,1.676,0.955
			C60.08,62.672,63.309,64.292,66.536,65.918z"/>
		<path fill="#020176" d="M45.608,83.853c3.007,1.269,4.667-0.796,6.432-2.6c-0.704,5.196-1.407,10.393-2.113,15.59
			c-0.098,0.721-0.209,1.441-0.648,2.187C48.056,93.971,46.832,88.912,45.608,83.853z"/>
		<path fill="#830101" d="M35.407,43.188c4.877-3.108,9.741-6.234,14.634-9.316c3.155-1.987,6.351-3.91,9.528-5.861
			c-0.899,6.427-1.798,12.854-2.697,19.281c-4.254,0.782-8.517,1.514-12.757,2.364c-2.312,0.464-4.734,0.448-6.917,1.507
			c-0.023-0.092-0.056-0.18-0.097-0.264C36.537,48.329,35.972,45.758,35.407,43.188z"/>
		<path fill="#8201A3" d="M37.199,51.163c2.183-1.06,4.605-1.044,6.917-1.507c4.24-0.85,8.503-1.583,12.757-2.364
			c0.039,0.04,0.079,0.079,0.12,0.117c-0.604,4.225-1.207,8.449-1.811,12.674c-0.072,0.024-0.135,0.062-0.189,0.116
			c-5.407-2.652-10.812-5.307-16.224-7.95c-0.33-0.161-0.71-0.218-1.067-0.324c0,0,0.017,0.009,0.017,0.009
			c-0.107-0.099-0.214-0.198-0.322-0.297C37.182,51.542,37.1,51.391,37.199,51.163z"/>
		<path fill="#8E7D01" d="M35.842,50.917c-2.335,0.886-4.834,0.967-7.251,1.45c-3.467,0.692-6.966,1.229-10.496,1.719
			c4.446-2.885,8.797-5.88,13.429-8.428c-0.164,2.741,1.388,4.144,3.796,4.896C35.513,50.614,35.669,50.794,35.842,50.917z"/>
		<path fill="#FE9F01" d="M35.842,50.917c-0.173-0.124-0.329-0.303-0.522-0.363c-2.407-0.752-3.96-2.155-3.796-4.896
			c0.021-0.102,0.047-0.202,0.081-0.299c1.191-0.741,2.381-1.483,3.571-2.225c0.078,0.014,0.156,0.031,0.232,0.054
			c0.565,2.57,1.13,5.141,1.694,7.711C36.682,50.905,36.262,50.911,35.842,50.917z"/>
		<path fill="#450123" d="M37.398,51.637c0.107,0.099,0.214,0.198,0.322,0.297C37.469,51.99,37.45,51.796,37.398,51.637z"/>
		<path fill="#FE9F01" d="M56.873,47.292c0.899-6.427,1.798-12.854,2.697-19.281c0.127-0.219,0.253-0.437,0.379-0.655
			c0.151,0.051,0.302,0.102,0.453,0.154c2.636,5.022,5.276,10.042,7.903,15.069c0.424,0.811,0.786,1.655,1.176,2.483
			c-4.163,0.782-8.325,1.565-12.488,2.348C56.952,47.371,56.912,47.332,56.873,47.292z"/>
		<path fill="#800050" d="M59.851,26.446c-2.592-4.799-5.189-9.596-7.766-14.404c-0.197-0.368-0.245-0.815-0.363-1.226l0.068-0.068
			c2.548,1.612,4.688,3.737,6.997,5.644c1.61,1.33,3.383,2.488,4.741,4.113c-2.422,0.605-3.602,2.141-3.524,4.65
			C60.018,25.584,59.905,26.016,59.851,26.446z"/>
		<path fill="#FB047C" d="M59.851,26.446c0.055-0.43,0.168-0.862,0.154-1.289c-0.078-2.51,1.102-4.045,3.524-4.65
			c0.093,0.022,0.187,0.031,0.283,0.026c0.997,0.89,1.995,1.779,2.992,2.669c-2.133,1.436-4.266,2.872-6.401,4.308
			c-0.153-0.051-0.304-0.102-0.455-0.154C59.653,27.081,59.752,26.763,59.851,26.446z"/>
		<path fill="#800050" d="M51.722,10.817c-0.041-0.065-0.083-0.13-0.124-0.195c0.064,0.043,0.128,0.085,0.192,0.128
			C51.79,10.749,51.722,10.817,51.722,10.817z"/>
	</g>
</g>
</svg>
