<?xml version="1.0" encoding="utf-8"?>
<!-- Generator: Adobe Illustrator 16.0.0, SVG Export Plug-In . SVG Version: 6.00 Build 0)  -->
<!DOCTYPE svg PUBLIC "-//W3C//DTD SVG 1.1//EN" "http://www.w3.org/Graphics/SVG/1.1/DTD/svg11.dtd">
<svg version="1.1" id="Layer_1" xmlns="http://www.w3.org/2000/svg" xmlns:xlink="http://www.w3.org/1999/xlink" x="0px" y="0px"
	 width="612px" height="207px" viewBox="0 291.5 612 207" enable-background="new 0 291.5 612 207" xml:space="preserve">
<g>
	<g>
		<path fill="#1f1f1f" d="M15.68,404.085c4.9,0,9.31,0,14.21,0c0.98,0,1.47,0,0.98-0.98c-0.49-0.489-0.98-0.489-1.47-0.489
			c-4.41,0-8.82,0-13.229,0c-0.49,0-1.47,0-1.96,0.489C14.7,403.595,15.19,404.085,15.68,404.085z M74.969,404.575
			c0.49,0,0-0.49,0-0.98c0-1.47-0.49-1.96-1.96-1.96c-5.39,0-10.78,0-15.68,0c-0.49,0-0.49,0-0.98,0c-0.49,0-0.98,0.49-0.98,0.98
			c0,0.489,0.49,0.979,0.98,0.979c0.49,0,1.47,0,1.96,0c5.39,0,10.78,0,16.17,0C74.479,404.575,74.479,405.064,74.969,404.575z
			 M99.958,401.635c-1.47,0-1.96,0.49-1.96,1.96c0,5.39-0.49,4.41,4.41,4.41c2.45,0,4.9,0,7.35,0c1.47,0,1.96-0.49,1.96-1.96
			s0-2.94,0-4.41l-0.49-0.49C107.308,401.635,103.388,401.635,99.958,401.635z M94.079,408.495c0.98,0,1.47-0.49,1.47-1.471
			c0.49-4.899,0.49-4.899-4.41-4.899c-3.92,0-8.33,0-12.25,0c-1.47,0-1.96,0.49-1.96,1.96c0,5.88-0.49,4.41,4.41,4.899
			c1.47,0,3.43,0,4.9,0l0,0C89.179,408.495,91.628,408.495,94.079,408.495z M51.449,408.495c0.98,0,1.47,0,1.47-1.471
			c0-0.979-0.98-0.979-1.47-0.979c-5.39,0-11.27,0-16.66,0c-0.98,0-1.47,0-1.47,0.979c0,0.98,0.49,0.98,1.47,0.98
			c2.94,0,5.39,0,8.33,0l0,0C45.569,408.495,48.509,408.495,51.449,408.495z M73.499,408.495c0.49,0,1.47,0,1.47-0.98
			c0-0.979-0.49-1.47-1.47-1.47c-5.39,0-11.27,0-16.66,0c-0.98,0-1.47,0-1.47,1.47c0,0.98,0.98,0.98,1.47,0.98c2.94,0,5.39,0,8.33,0
			l0,0C68.109,408.495,70.559,408.495,73.499,408.495z M29.399,408.495c0.98,0,1.47,0,1.47-0.98c0-0.979-0.98-0.979-1.96-0.979
			c-4.41,0-8.82,0-13.23,0c-0.98,0-1.47,0-1.47,0.979c0,0.98,0.98,0.98,1.96,0.98c1.96,0,4.41,0,6.37,0
			C24.99,408.495,26.95,408.495,29.399,408.495z"/>
		<path fill="#1f1f1f" d="M388.563,316.376c2.45-0.49,4.9-0.98,7.35-0.98c-1.96-1.47-4.899-0.49-6.859-1.96
			c1.96-1.47,4.41-0.49,6.859-1.47c-1.47-0.98-2.939,0-4.409-1.47c1.47-0.98,3.43-0.98,4.899-1.96c-1.96-0.49-3.43-0.49-4.899-0.98
			v-0.49c1.47-0.49,2.939-0.98,4.899-1.47c-2.45-0.49-4.899,0.49-7.35-0.98c2.939-0.49,5.39-0.98,7.84-0.98
			c-1.96-1.47-3.92-0.98-4.9-2.45c4.41,0,8.82,0,13.23,0c0.979,0,1.47,0,1.47,1.47c0,4.41,0,8.82,0,13.72
			c0,0.49-0.49,0.98-1.47,0.98c-1.96,0-1.96,0.98-1.96,2.45c0,0.49,0,0.98,0,1.47c0,21.56,0,43.609,0,65.169
			c0,3.92,0.489,3.92,4.41,3.43c0.979,0,1.47-0.49,1.47-1.47c0-0.49,0-0.98,0-1.96c0-27.93,0-56.349,0-84.279c0-0.49,0-0.98,0-1.47
			c0-1.47-0.49-1.96-1.96-1.96c-5.88,0-12.25,0-18.13,0c-1.47,0-1.96,0.49-1.96,1.96c0,0.49,0,0.98,0,1.96
			c0,27.929,0,55.859,0,83.789c0,3.92-0.49,3.43,3.43,3.43c1.96,0,4.41,0,6.37,0c1.47,0,2.45-0.49,1.96-1.96c0-0.49,0-0.98,0-1.96
			c0-21.56,0-43.119,0-65.169c0-0.49,0-0.98,0-1.96c0.49-0.98,0-1.47-1.96-1.47c-2.94,0-5.88,0-8.82,0
			C388.563,317.356,388.563,316.866,388.563,316.376z"/>
		<g>
			<path fill="#1f1f1f" d="M150.428,384.975c0-2.94,0-5.39,0-8.33c0-0.49,0-0.98-0.98-1.47c-0.98,0-0.98,0.49-0.98,0.98
				c0,0.98,0,2.45,0,3.43c0,1.47-0.98,1.96-1.96,1.96s-2.45,0.49-2.45-1.47c0-0.98,0-1.96,0-2.94s0-1.96-0.98-1.96
				c-1.47,0-0.98,0.98-0.98,1.96c0,0.49,0,0.98,0,1.47c0,2.94,0,5.39,0,8.33s0,2.94-2.94,2.94c-5.88,0-4.9,0.49-4.9-4.9
				c0-1.47,0-3.43,0-4.9c0-0.49-0.49-0.98-0.98-0.98c-0.49,0-0.98,0.49-0.98,0.98c0,0.49,0,0.98,0,1.96s-0.49,1.47-1.47,1.47
				s-1.96-0.49-1.47-1.47c0-0.49,0-0.98,0-1.96c0-0.49-0.49-0.98-0.98-0.98c-1.47,0-1.96,0-1.96,1.96c0,2.45,0,4.9,0,7.35
				c0,0.98,0,1.47-0.98,1.96c-1.47,0-0.98-0.98-0.98-1.47c0-2.94,0-5.88,0-8.82c0-3.43,0-3.43-3.43-3.92l-0.49-0.49
				c0.98-1.96,1.96-3.43,2.45-5.39c0.98-2.45,2.45-2.94,4.41-2.94c6.37,0,12.74,0,19.11,0c2.94,0,2.94,0,2.94-2.94
				c0-0.49,0-1.47,0-1.96c0-7.35,0-35.279,0-42.629c0-1.96,0.49-2.45,2.45-2.45c0.49,0,0,1.47,0,2.45c0,15.19,0,51.939,0,67.129
				c0,0.98,0.49,1.96-0.98,2.94C150.428,388.405,150.428,386.445,150.428,384.975z M123.968,373.215c7.84,0,16.17,0,24.01,0
				c2.45,0,2.45,0,2.45-2.45c0-1.47-0.49-1.96-1.96-1.96c-7.35,0-14.7,0-22.05,0c-2.45,0-2.45,0.49-3.43,3.92
				C122.988,373.215,123.478,373.215,123.968,373.215z"/>
			<path fill="#1f1f1f" d="M212.657,334.016c-1.96-0.98-3.43-0.49-5.39-0.49c-0.98,0-2.45,0-3.43,0c-1.47,0-1.96-0.49-1.96-1.96
				c0-1.47-0.98-1.96-1.96-2.45c-3.92-0.98-7.84-0.98-11.76-0.49c-2.94,0.49-6.37,0-9.31,0.49c-1.47,0-1.96-0.49-1.96-1.96
				c0-2.45,0-4.9,0-7.35c0-2.45,0-2.45-2.45-2.94c-0.49,0-0.49,0-0.98,0c-5.88-0.49-11.76-0.49-17.64,0.49
				c-2.94,0.49-2.94,0.49-2.94,3.43c0,2.45,0,4.9,0,7.35c0,1.96,0,1.96,1.96,1.96c4.41-0.49,8.82-0.49,13.23-0.49
				c0.98,0,1.96,0,2.45,1.47c0,1.47,1.96,1.47,2.94,1.96c4.41,1.47,8.33,1.47,12.74,0.98c2.45-0.49,4.9-0.49,7.35-0.98
				c2.45-0.49,4.9,0,7.35,1.96c1.47,1.47,3.92,1.96,6.37,1.47C209.227,335.976,210.697,334.506,212.657,334.016z"/>
		</g>
		<path fill="#1f1f1f" d="M366.514,376.155c0,0.49,0.49,1.47,0.49,2.94c0,0.98,0,2.45,1.96,1.96c1.47-0.49,2.45,0.98,2.94,2.94
			c0,1.47,0,2.94,0,4.41c0,1.96,0.489,1.96,2.449,1.96c1.471,0,1.96,0,1.96-1.96c0-2.94,0-6.37,0-9.31c0-3.43-2.449-5.88-5.39-6.37
			C367.984,371.746,366.514,373.215,366.514,376.155z"/>
		<path fill="#1f1f1f" d="M424.333,383.015c0-1.47,0-3.92-0.49-5.88c-0.489-2.94-2.449-4.9-5.39-4.9c-1.96,0-2.939,0.98-2.939,2.94
			c0,0.98,0.489,1.96,0.489,3.43c0,1.47,0.49,2.45,1.96,2.45c0.98,0,1.471,0.49,1.471,1.96c0,1.96,0,3.92,0,5.88
			s0.489,1.96,2.449,1.96c1.471,0,2.45,0,2.45-1.96C424.333,386.445,424.333,384.975,424.333,383.015z"/>
		<path fill="#1f1f1f" d="M154.837,408.495c4.9,0,4.41,0.489,4.41-4.41c0-1.96-0.49-2.94-2.45-3.92c-1.96-0.98-3.92-0.98-5.88,0.49
			c-0.49,0.489-0.98,0.979-0.98,1.96c0,0.489,0,0.979,0,1.47C150.428,409.475,149.938,408.495,154.837,408.495z"/>
		<path fill="#1f1f1f" d="M326.335,408.495c4.899,0,4.409,0.489,4.409-4.41c0-1.96-0.489-2.94-2.449-3.92
			c-1.96-0.98-3.92-0.98-5.391,0.49c-0.489,0.489-0.979,0.979-0.979,1.96c0,1.47,0,2.449,0,3.92c0,1.47,0.49,1.96,1.96,1.96
			C324.864,408.495,325.354,408.495,326.335,408.495z"/>
		<path fill="#1f1f1f" d="M188.157,408.495c4.9,0,3.92,0.489,4.41-3.92c0-1.471,0-2.94-1.47-3.92c-1.96-0.98-3.43-1.471-5.39-0.49
			c-0.98,0.49-1.96,0.979-1.96,2.45c0,1.47,0,3.43,0,4.899c0,0.98,0.49,0.98,1.47,0.98S187.177,408.495,188.157,408.495z"/>
		<path fill="#1f1f1f" d="M166.107,408.495c4.9,0,3.92,0.489,3.92-3.92c0-1.471,0.49-2.94-1.47-3.431
			c-1.47-0.979-3.43-1.47-5.39-0.489c-0.49,0-1.47,0.979-1.47,2.449c0,0.49,0,0.98,0,0.98
			C161.697,408.984,161.208,408.495,166.107,408.495z"/>
		<path fill="#1f1f1f" d="M144.058,408.495c4.9,0,4.41,0.489,4.41-4.41c0-2.94-2.45-4.9-5.39-4.41c-0.98,0-1.96,0.98-1.96,1.96
			c0,0.98-0.49,1.47-0.49,2.45C139.648,408.495,139.648,408.495,144.058,408.495z"/>
		<path fill="#1f1f1f" d="M272.926,408.495c4.41,0,3.92,0.489,3.92-4.41c0-2.94-1.47-4.41-4.41-4.41c-2.45,0-3.43,1.47-3.92,3.92
			c0,0.49,0,0.98,0,0.98C269.006,408.984,268.516,408.495,272.926,408.495z"/>
		<path fill="#1f1f1f" d="M252.346,408.495c0.49,0,0.49,0,0.98,0c2.94,0,2.94,0,2.94-2.94c0-0.49,0-0.979,0-1.96
			c0-2.939-2.94-4.899-5.39-3.92c-1.47,0.49-1.96,1.47-2.45,2.94c0,1.47,0,2.449,0,3.92c0,1.47,0.49,1.96,1.96,1.96
			C250.876,408.495,251.366,408.495,252.346,408.495z"/>
		<path fill="#1f1f1f" d="M210.697,408.495c4.41,0,3.92,0.489,3.92-4.9c0-2.939-2.45-4.899-5.39-3.92
			c-1.47,0.49-2.45,1.47-2.45,3.43c0,0.49,0,0.98,0,1.471C206.287,408.984,205.797,408.495,210.697,408.495z"/>
		<path fill="#1f1f1f" d="M314.575,408.495c4.409,0,3.43,0.489,3.92-4.9c0-2.939-2.94-4.899-5.88-3.92
			c-1.471,0.49-1.96,1.47-1.96,2.94c0,0.489,0,0.979,0,1.47C310.655,408.984,310.655,408.495,314.575,408.495z"/>
		<path fill="#1f1f1f" d="M401.304,408.495c4.899,0,3.92,0.489,4.409-3.92c0-1.471,0.49-2.45-0.979-3.431
			c-1.47-0.979-3.43-1.47-5.39-0.489c-0.98,0.489-1.471,0.979-1.471,1.96c-0.489,1.47-0.489,3.43-0.979,4.899
			c0,0.98,0.49,0.98,1.47,1.47C398.854,408.495,399.833,408.495,401.304,408.495z"/>
		<path fill="#1f1f1f" d="M220.986,408.495c4.41,0,4.41,0.979,4.41-4.41c0-1.96-0.98-2.94-3.43-3.92c-1.96-0.49-4.41,0-5.39,1.47
			c-0.49,0.49-0.49,5.88,0,6.37c0.49,0.49,0.98,0.49,1.47,0.49C219.026,408.495,220.006,408.495,220.986,408.495z"/>
		<path fill="#1f1f1f" d="M176.887,408.495c4.9,0,4.41,0.979,4.41-4.9c0-2.45-2.45-3.92-5.39-3.92c-2.45,0-3.43,1.47-3.43,3.92
			c0,0,0,0,0,0.49C172.477,408.984,171.987,408.495,176.887,408.495z"/>
		<path fill="#1f1f1f" d="M390.033,408.495c4.9,0,4.41,0.979,4.41-4.9c0-2.45-0.979-3.43-3.43-3.43c-2.45-0.49-3.92,0.49-4.41,2.939
			c0,0.49,0,0.98,0,0.98C385.624,408.495,385.624,408.495,390.033,408.495z"/>
		<path fill="#1f1f1f" d="M199.427,408.495c4.41,0,3.92,0.489,3.92-4.41c0-2.94-1.96-4.9-4.9-3.92c-1.47,0.49-2.45,1.47-2.94,3.43
			c0,0.49,0,0.98,0,1.47C195.507,408.984,195.017,408.495,199.427,408.495z"/>
		<path fill="#1f1f1f" d="M290.075,405.064c0,3.431-0.49,3.92,2.94,3.431c5.39,0,4.41,0.979,4.41-4.9c0-2.939-1.47-4.41-4.41-3.92
			c-1.96,0-3.43,1.47-3.43,3.43C290.075,404.085,290.075,404.575,290.075,405.064z"/>
		<path fill="#1f1f1f" d="M241.566,408.495c0.49,0,0.98,0,0.98,0c1.96,0,1.96,0,2.45-1.96c0-0.98,0-1.96,0-3.431
			c0-1.96-1.47-3.43-3.92-3.43c-1.96,0-3.92,0.98-3.92,2.94c0,0.489,0,0.979,0,1.47
			C237.156,408.984,236.666,408.495,241.566,408.495z"/>
		<path fill="#1f1f1f" d="M307.715,404.575c0-3.92-1.47-5.391-4.41-4.9c-1.96,0.49-2.94,1.47-2.94,3.43c0,5.88-0.49,4.9,4.9,4.9
			C308.205,408.495,307.225,408.495,307.715,404.575z"/>
		<path fill="#1f1f1f" d="M231.276,408.495c4.41,0,3.92,0.489,3.92-3.92c0-3.431-0.98-4.9-3.92-4.9c-2.45,0-3.92,1.47-3.92,3.92
			c0,0.49,0,0.98,0,0.98C227.356,408.984,226.866,408.495,231.276,408.495z"/>
		<path fill="#1f1f1f" d="M123.478,408.495c4.41,0,3.92,0.489,3.92-3.92c0-3.431-0.98-3.92-3.43-4.41
			c-2.45-0.49-3.92,0.979-4.41,3.43c0,0.49,0,0.98,0,1.47C120.048,408.984,119.068,408.495,123.478,408.495z"/>
		<path fill="#1f1f1f" d="M262.146,408.495c4.41,0,3.92,0,3.92-3.92c0-2.94-0.49-3.92-2.94-4.9c-2.45-0.49-4.41,0.98-4.9,3.43
			c0,0.49,0,0.98,0,0.98C258.226,408.984,257.736,408.495,262.146,408.495z"/>
		<path fill="#1f1f1f" d="M284.195,408.495c0.49,0,0.98,0,1.47,0c1.96,0,2.45,0,2.45-1.96c0-0.49,0-1.471,0-1.96
			c0-2.45-0.98-3.431-3.43-4.41c-2.94-0.98-4.41,0.49-4.41,3.43c0,0.98,0,1.96,0,2.94c0,2.449,0,2.449,2.45,2.449
			C283.215,408.495,283.706,408.495,284.195,408.495z"/>
		<path fill="#1f1f1f" d="M379.254,408.495c4.41,0,3.92,0.489,3.92-3.92c0-3.431-1.47-4.9-4.9-4.41
			c-1.96,0.49-2.939,0.979-2.939,3.43c0,0.49,0,0.98,0,0.98C375.334,408.984,374.844,408.495,379.254,408.495z"/>
		<path fill="#1f1f1f" d="M368.474,408.495c4.41,0,3.92,0,3.92-3.92s-2.449-5.391-6.369-3.92c-0.98,0.489-1.96,1.47-1.471,2.449
			c0,0.49,0,0.98,0,0.98C364.554,408.984,364.064,408.495,368.474,408.495z"/>
		<path fill="#1f1f1f" d="M357.694,408.495c4.41,0,3.43,0.489,3.92-3.92c0-3.431-1.47-3.92-4.41-4.41c-2.45,0-3.43,0.979-3.43,3.43
			c0,0.49,0,0.98,0,0.98C353.774,408.984,353.284,408.495,357.694,408.495z"/>
		<path fill="#1f1f1f" d="M336.624,408.495c0.49,0,0.98,0,0.98,0c2.45,0,2.45,0,2.45-2.45c0-0.49,0-0.98,0-1.96
			c0-1.47,0-2.94-1.96-3.43c-1.96-0.49-3.431-0.98-4.9,0.489c-0.49,0.49-0.979,0.98-0.979,1.96c0,0.49,0,0.98,0,1.96
			C332.704,408.984,332.215,408.495,336.624,408.495z"/>
		<path fill="#1f1f1f" d="M133.768,408.495c3.92,0,3.43,0.489,3.43-3.92c0-3.92-1.96-5.391-5.88-3.92
			c-1.47,0.489-2.45,1.47-1.96,2.939c0,0.49,0,0.49,0,0.98C129.848,408.984,129.358,408.495,133.768,408.495z"/>
		<path fill="#1f1f1f" d="M346.424,408.495c0.49,0,0.98,0,0.98,0c2.45,0,2.45,0,2.45-2.94c0-0.49,0-0.979,0-0.979
			c0-3.431-2.45-4.9-5.88-3.92c-0.98,0.489-1.471,0.979-1.471,2.449c0,0.49,0,1.471,0,1.96
			C342.994,408.495,342.505,408.495,346.424,408.495z"/>
		<path fill="#1f1f1f" d="M12.25,404.085c0.98-1.47,0.49-3.43,0.49-4.9c-3.43,0.49-6.86,0.49-10.29,0c-0.98,1.471-0.98,3.431,0,4.9
			C5.88,404.085,8.82,404.085,12.25,404.085z"/>
		<path fill="#1f1f1f" d="M32.83,399.185c0.49,0.98,1.96,0.49,2.94,0.49c4.41,0,8.82,0,13.72,0c0.49,0,1.47,0,1.96,0
			c0.49,0,0.98,0.49,0.98,0.98c0,0.489,0,0.979-0.98,0.979c-0.49,0-1.47,0-1.96,0c-4.41,0-8.82,0-13.72,0
			c-0.98,0-1.96-0.49-2.94,0.49c6.37-0.49,13.229,0,19.6,0c0.98-0.98,0.98-2.45,0-3.43C46.059,399.675,39.689,399.675,32.83,399.185
			z"/>
		<path fill="#1f1f1f" d="M55.369,399.675c0.49,0.49,1.47,0.49,1.96,0.49c5.39,0,10.29,0,15.68,0c0.49,0,0.98,0,1.47-0.49
			C68.109,399.675,61.739,399.675,55.369,399.675z"/>
		<path fill="#1f1f1f" d="M76.929,399.185c0.49,0.49,0.98,0.49,1.47,0.49c5.39,0,10.29,0,15.68,0c0.49,0,0.98,0,1.47-0.49
			C89.179,399.185,83.299,399.675,76.929,399.185z"/>
		<path fill="#1f1f1f" d="M14.21,399.185c0.49,0.49,0.98,0.49,1.47,0.49c4.41,0,9.31,0,13.72,0c0.49,0,0.49-0.49,0.98-0.49
			c-4.41,0-8.82,0-12.74,0C16.66,399.675,15.68,399.185,14.21,399.185z"/>
		<path fill="#1f1f1f" d="M272.436,413.395c0.98,0,1.96,0,2.94,0c29.399,0,58.309,0,87.708,0c0.98,0,2.45,0,3.43-0.49
			c-6.369,0-12.739,0-19.109,0c-23.52,0-47.529,0-71.049,0C274.886,412.904,273.416,412.904,272.436,413.395z"/>
		<path fill="#1f1f1f" d="M433.643,414.375c1.96,0,3.92,0,5.391,0c54.389-0.49,109.268-0.98,163.657-1.471c1.96,0,3.92,0,5.88-0.489
			c-11.76,0-24.01,0-35.77,0.489c-44.1,0.49-88.688,0.98-132.788,0.98C438.053,414.375,436.093,413.885,433.643,414.375z"/>
		<path fill="#1f1f1f" d="M13.23,413.395c0.98,0,1.96,0,2.94,0c29.399,0,217.556,0,246.956,0c0.98,0,2.45,0,3.43-0.49
			c-6.37,0-171.987,0-178.357,0c-23.52,0-47.529,0-71.049,0C15.68,412.904,14.21,412.904,13.23,413.395z"/>
		<path fill="#1f1f1f" d="M2.45,406.045c-0.98,1.96-0.49,2.45,0.98,2.45c2.45,0,4.9,0,7.35,0c1.47,0,1.47,0,0.98-2.45
			C8.82,406.045,5.88,406.045,2.45,406.045z"/>
		<path fill="#1f1f1f" d="M74.969,404.085C74.969,404.085,74.479,404.085,74.969,404.085c-0.49,0.49-0.49,0.979,0,0.979
			C75.459,404.575,74.969,404.085,74.969,404.085z"/>
		<path fill="#1f1f1f" d="M110.738,401.635l0.49,0.49C111.228,402.125,110.738,402.125,110.738,401.635z"/>
		<g>
			<path fill="#1f1f1f" d="M233.236,378.605c-0.49-1.47,0.49-3.43-0.49-4.9c0-0.49-0.49-0.49-0.49,0c-0.98,0-1.47,0-2.45,0
				c0-0.49-0.49-0.49-0.98-0.49c0-0.49-0.49-0.98-0.49-1.47c-0.49,0-0.98,0-1.47,0c-0.49,1.96,0,3.92,0,5.88
				c0,1.47-0.49,1.96-1.96,1.96c-1.47,0-1.96-0.49-1.47-1.96c0-0.98,0-2.45,0-3.43c0-0.49-0.49-0.49-0.49,0c-0.49,0-1.47,0-1.96,0
				l-0.49-0.49c0-0.49,0-0.98,0-0.98c1.47,0,2.94,0,4.9,0v-0.49c-5.39,0-10.78,0-16.66,0c-0.49,1.96,0,4.41-0.49,6.37
				c0,0.49-0.49,0.98-0.98,0.98c-0.49,0-0.98-0.49-0.98-0.98c0-1.47,0-2.94,0-4.41c0-0.49,0-0.49-0.49,0c-0.49,0-1.47,0-1.96,0
				l-0.49-0.49c0-0.49,0-0.98,0-0.98c0.98,0,2.45,0,3.43,0v-0.49c-7.84,0-15.19,0-23.03,0c-0.49,1.96,0,3.92-0.49,5.88
				c0,1.47-0.49,1.96-1.96,1.96c-1.47,0-2.94,0-4.41,0l-0.49-0.49c0-2.45,0-4.41,0-6.86c1.47,0,2.94,0,4.41,0
				c-1.47-0.98-2.94-0.49-4.41-0.49c0-2.94,0-2.94,2.45-2.94h0.49c31.85,0,63.699,0,95.549,0c0.49,0,1.47,0,1.96,0
				c0.98,0,1.47,0.49,1.47,1.47c0,2.94,0,5.39,0,8.33c0,0.49-0.49,0.98-0.98,0.98c-0.98,0-0.98-0.49-0.98-0.98c0-0.98,0-1.96,0-3.43
				c0-1.47,0-1.96-1.96-1.96c-0.98,0-1.47,0-1.96-0.98c-2.94,0-6.37-0.49-9.31,0c0,1.96,0,3.92,0,6.37c0,0.98-0.49,1.47-1.47,1.47
				s-0.98-0.49-0.98-0.98c0-1.47,0-2.94,0-3.92c0-0.49-0.49-0.49-0.49,0c-0.98,0-1.47,0-2.45,0c0-0.49-0.49-0.49-0.98-0.49
				c0-0.49,0-0.98,0-1.47c-1.96-2.45-2.94-2.45-4.41-1.96c-2.94,0-5.88-0.49-8.33,0c0,1.96,0,3.92,0,5.88c0,0.98,0,1.47-0.98,1.47
				s-0.98-0.98-0.98-1.47c0-0.49,0-1.47,0-1.96c0-0.98,0-1.96-0.49-2.94c0.49-0.49,0.98-0.49,1.47-0.98c-4.41,0-8.33,0-12.74,0
				c1.96,0.49,3.92,0.49,5.39,0.49c0,1.96,0,4.41,0,6.37C234.216,378.605,233.726,378.605,233.236,378.605z M260.676,371.746
				c-0.98-0.49-1.96-0.49-2.94,0C258.716,371.746,259.696,371.746,260.676,371.746z"/>
			<path fill="#1f1f1f" d="M299.385,382.525c0.98-1.47,0.49-2.94,0.49-3.92s0-1.96,1.47-1.96c1.47,0,1.47,0.98,1.47,1.96
				c0,2.45,0,4.9,0,7.35c0,0.49,0,1.47,0,1.96c0,0.98,0,1.47,0.98,1.96c0.98,0,0.98-0.98,0.98-1.47c0-2.45,0-4.9,0-7.35
				c0-1.47-0.98-3.43,1.96-4.41c0.979-0.49,0.979-2.94,0-3.92c-0.98-0.98-0.98-2.45-0.98-3.43c0-2.45,0-5.39,0-7.84
				c0-0.49,0-0.98,0-1.47c0-0.98,0-1.96-1.47-1.96c-0.98,0-0.98,0.98-0.98,1.96c0,2.45,0,4.41,0,6.86c0,0.979,0,2.45,0,3.43
				c0,1.96,0,1.96-1.96,1.96c-4.9,0-9.31,0-14.21,0c-1.96,0-4.9-0.98-5.88,0.49c-1.47,1.47-0.49,4.41-0.49,6.37
				c0,2.94,0,5.88,0,8.82c0,0.98,0,1.96,1.47,1.96s1.96-0.49,1.96-1.96c0-0.49,0-1.47,0-1.96c0-0.98,0.49-1.47,1.47-1.47
				s1.47,0.49,1.47,1.47c0,0.49,0,1.47,0,1.96c0,0.98,0,1.96,1.47,1.96c0.98,0,0.98-0.98,0.98-1.96c0-2.45,0-4.9,0-7.35
				c0-0.49,0-1.47,0-1.96c0-0.98,0.49-1.47,1.47-1.47s1.47,0.49,1.47,1.47s0,2.45,0,3.43s0.49,1.47,1.47,1.47s0.98-0.49,0.98-0.98
				c0-1.47,0-2.45,0-3.92c0-0.98,0.49-1.47,1.47-1.47s1.47,0,1.47,1.47C298.895,379.095,298.405,381.055,299.385,382.525z"/>
			<path fill="#1f1f1f" d="M327.314,366.846c0.98-1.96,0.98-3.92,0.98-5.88c0-1.47-0.49-2.45-2.45-2.45
				c-5.39-0.98-10.78-0.49-16.17,0c-0.979,0-1.47,0.49-1.47,1.96c0,1.47,0,2.94,0,4.41c0,1.47,0.49,1.96,1.96,1.96
				c3.43,0,6.37,0,9.8,0c2.45,0,2.45,0,2.939,2.45c0,1.47,0.98,1.96,1.96,2.45c5.391,1.96,10.78,0.98,16.17,0.49
				c0.49,0,1.471-0.49,1.96-0.49c0.98,0,1.471,0,1.96,0.98c0.98,2.94,2.94,3.43,5.88,1.96c1.471-0.49,2.94-1.47,4.41-1.96
				c0-0.98-0.979-0.49-1.47-0.49c-1.47,0-2.94,0-4.41,0s-2.45,0-3.43-1.47c-1.47-1.96-4.41-2.45-6.86-2.94c-2.939,0-5.39,0-8.33,0
				C329.274,367.335,328.784,367.335,327.314,366.846z"/>
			<path fill="#1f1f1f" d="M228.336,363.905c-17.15,0-33.81,0-50.959,0c-0.98,0-1.96,0-2.94,0s-0.98,0.49-0.98,1.47
				c0,0.49,0.49,0.98,0.98,0.98c0.49,0,1.47,0,1.96,0c34.3,0,68.599,0,102.898,0c0.49,0,1.47,0,1.96,0c0.49,0,0.98-0.49,0.98-0.98
				s0-0.98-0.98-0.98s-1.96,0-2.45,0C262.146,363.905,244.996,363.905,228.336,363.905z"/>
			<path fill="#1f1f1f" d="M202.367,372.235c0.98,0,2.45,0,3.43,0v-0.49c-7.84,0-15.19,0-23.03,0c0.98,0,1.96,0.98,1.47,1.96
				c0,1.47,0,2.94,0,4.41c0,0.98,0.49,1.47,1.47,1.47c0,0,0,0,0.49,0c4.9,0,3.92,0,3.92-3.43c0-0.49,0-0.98,0-1.47
				c0-2.45,0-2.45,2.45-1.47c0.49,0.49,1.47,0.49,1.96,0.49c0.49-1.47,1.47-0.98,2.45-0.98s0.98,0.98,0.98,1.96s0,1.96,0,3.43
				c0,0.98-0.49,1.47-1.47,1.47c0.98,0.98,1.96,0.98,1.96-0.49c0-0.98,0-1.96,0-3.43
				C198.937,371.746,199.427,371.746,202.367,372.235z"/>
			<path fill="#1f1f1f" d="M175.907,385.465c0,3.92-0.49,3.92,3.92,3.92c2.94,0,2.94,0,2.94-2.94c0,0,0,0,0-0.49
				c0-4.9,0.98-4.41-4.41-4.41c-1.47,0-1.96,0.49-1.96,1.96C175.907,384.485,175.907,384.975,175.907,385.465z"/>
			<path fill="#1f1f1f" d="M184.727,385.465c0,0.49,0,0.49,0,0.98c0,2.94,0,2.94,2.94,2.94c2.45,0,2.45,0,2.94-2.45
				c0-0.49,0-0.98,0-1.96c0-3.43-1.47-4.41-4.9-3.43c-0.98,0-0.98,0.98-0.98,1.47C184.727,383.505,184.727,384.485,184.727,385.465
				L184.727,385.465z"/>
			<path fill="#1f1f1f" d="M211.187,382.035c0.49,0.98,1.96,0.49,2.94,0.49s1.47,0.49,1.47,1.47s0,2.45,0,3.43s0,1.47,0.98,1.47
				s1.47-0.49,1.47-0.98c0-1.96,0-3.43,0-5.39c0-0.49,0-0.98-0.49-0.98C216.086,381.055,212.167,381.545,211.187,382.035z"/>
			<path fill="#1f1f1f" d="M192.567,382.035c0.49,0.98,1.47,0.49,1.96,0.98c1.96,0,1.96,0,1.96,2.45c0,0.98,0,1.96,0,2.94
				c0,0.49,0.49,0.98,0.98,0.98c0.98,0,1.47-0.49,1.47-0.98c0-1.96,0-3.92,0-5.88c0-0.49-0.49-0.98-0.98-0.98
				C197.467,381.055,193.547,381.545,192.567,382.035z"/>
			<path fill="#1f1f1f" d="M262.636,384.485c0-3.43,0.49-3.43-3.92-3.43c-0.98,0-2.45-0.49-2.45,0.49c0,1.47,1.47,0.49,2.45,0.98
				c0.98,0,1.47,0.49,1.47,1.47s0,2.45,0,3.43s0.49,1.47,0.98,1.47c0.98,0,0.98-0.49,0.98-1.47
				C262.636,386.935,262.636,385.955,262.636,384.485z"/>
			<path fill="#1f1f1f" d="M244.016,384.485c0-3.43,0.49-3.43-3.92-3.43c-0.98,0-2.45-0.49-2.45,0.49c0,1.47,1.47,0.49,2.45,0.98
				c0.98,0,1.47,0.49,1.47,1.47s0,2.45,0,3.43s0.49,1.47,0.98,1.47c0.98,0,0.98-0.49,0.98-1.47
				C244.016,386.935,244.016,385.955,244.016,384.485z"/>
			<path fill="#1f1f1f" d="M220.006,382.035c0.98,1.47,1.96,0.98,2.94,0.98s1.47,0.49,1.47,1.47c0,1.47,0,2.45,0,3.92
				c0,0.49,0.49,0.98,0.98,0.98c0.98,0,1.47-0.49,1.47-1.47s0-1.47,0-2.45c0-1.47,0.98-3.43-0.49-3.92
				C223.926,381.055,221.966,381.055,220.006,382.035z"/>
			<path fill="#1f1f1f" d="M264.596,382.035C265.085,382.035,265.085,382.525,264.596,382.035c2.94,1.47,2.94,1.47,3.43,4.9
				c0,0.98-0.49,2.45,0.98,2.45c1.96,0,0.979-1.47,0.979-2.45c0-0.49,0-1.47,0-1.96c0-0.98,0.49-2.45-0.49-2.94
				C268.025,381.055,266.556,381.055,264.596,382.035z"/>
			<path fill="#1f1f1f" d="M202.367,382.035c3.43,0.98,3.43,0.98,3.43,4.41c0,0.98-0.49,2.94,1.47,2.94c1.47,0,0.98-1.47,0.98-2.45
				c0-0.49,0-1.47,0-1.96c0-2.94,0-3.43-3.43-2.94C203.837,381.545,202.856,381.055,202.367,382.035z"/>
			<path fill="#1f1f1f" d="M228.826,382.035c0,0.49,0.49,0.98,0.49,0.98c3.43,0.49,3.43,0.49,3.43,3.92c0,0.98-0.49,2.45,0.98,2.45
				c1.96,0,0.98-1.47,0.98-2.45c0-5.88,0.98-4.9-5.39-4.9C229.316,381.545,229.316,381.545,228.826,382.035z"/>
			<path fill="#1f1f1f" d="M272.436,382.035c0.49,0.98,0.98,0.49,1.47,0.49c2.94,0,2.94,0,2.94,2.94c0,0.98-0.49,1.96,0.49,2.94
				c0.98,0,0.98-0.49,0.98-0.98c0-0.49,0-1.47,0-1.96C278.315,381.055,277.335,380.565,272.436,382.035z"/>
			<path fill="#1f1f1f" d="M246.466,382.035c1.47,0.98,2.45,0.49,3.43,0.49c1.47,0,1.96,0.49,1.96,1.96c0,0.98,0,2.45,0,3.43
				c0,0.49,0.49,0.98,0.98,0.98c0.98,0,0.98-0.49,0.98-1.47c0-0.49,0-0.49,0-0.98c0-1.96,0.49-3.43-0.49-5.39
				C252.836,381.545,248.426,381.545,246.466,382.035z"/>
			<path fill="#1f1f1f" d="M215.106,373.706c0.49,1.47,0,3.43,0.49,4.9c1.47,0,0.98-1.47,1.96-1.96c0-0.98,0-1.96,0-2.94
				c-0.49-1.47-1.47-1.96-3.43-1.96c-0.98,0-1.96,0-3.43,0c0,0.49,0,0.98,0,0.98c0.49,0,0.49,0,0.98,0.49c0.98,0,1.47,0,2.45,0
				C214.617,373.215,215.106,373.706,215.106,373.706z"/>
			<path fill="#1f1f1f" d="M268.025,373.215c0,1.47,0,2.94,0,4.41c0,0.98,0,1.96,1.47,1.96c0.98,0,0.98-0.98,0.98-1.96
				c0-1.96,0-3.43,0-5.39C269.496,372.235,268.516,372.235,268.025,373.215z"/>
			<path fill="#1f1f1f" d="M253.816,378.605c0-2.45,0-4.41,0-6.86c-2.45,0-4.9,0-7.35,0c0,0.49,0,0.98,0,0.98l0.49,0.49
				c1.47,0,3.43,0,4.9,0c0.49-0.49,0.49,0,0.49,0c0.98,1.47,0,3.43,0.49,4.9C253.326,378.605,253.326,378.605,253.816,378.605z"/>
			<path fill="#1f1f1f" d="M196.977,378.605c0.98,0,1.47-0.49,1.47-1.47s0-1.96,0-3.43c0-0.98,0-1.96-0.98-1.96
				s-2.45-0.49-2.45,0.98l0,0c0.49,0,0.98,0,1.47,0.49C196.977,375.175,195.997,377.135,196.977,378.605z"/>
			<path fill="#1f1f1f" d="M211.187,372.235c0.98,0,1.96,0,3.43,0c1.47,0,2.45,0.49,3.43,1.96c0.49-0.98,0.49-2.45,2.45-1.96
				c1.47,0,2.94,0,4.9,0v-0.49c-5.39,0-10.78,0-16.66,0C209.227,371.746,210.207,371.746,211.187,372.235z"/>
			<path fill="#1f1f1f" d="M241.076,372.726c0.49-0.49,0.98-0.49,1.47-0.98c-4.41,0-8.33,0-12.74,0c1.96,0.49,3.92,0.49,5.39,0.49
				c0.98-0.49,1.96,0,2.94,0.49c0-0.49,0.49-0.49,0.49,0C239.116,372.726,240.096,372.726,241.076,372.726z"/>
			<path fill="#1f1f1f" d="M268.025,373.215c0.49-0.98,0.98-0.98,1.96-0.98c0.49,0,1.47-0.49,1.96-0.49c-2.94,0-6.37-0.49-9.31,0
				c0.98,0,1.47,0,2.45,0.49l0.49,0.49C266.556,372.726,267.536,372.726,268.025,373.215z"/>
			<path fill="#1f1f1f" d="M246.466,372.235c2.45,0,4.9,0,7.35,0c0.98-0.49,1.47-0.49,2.45,0c-1.47-0.98-2.45-0.98-3.92-0.49
				c-2.94,0-5.88-0.49-8.33,0C244.996,371.746,245.486,371.746,246.466,372.235z"/>
			<path fill="#1f1f1f" d="M217.557,377.135c-0.98,0.49-0.49,1.96-1.96,1.96c0.49,0.98,1.47,0.98,1.96,0.49
				C218.046,378.605,218.046,377.625,217.557,377.135z"/>
			<path fill="#1f1f1f" d="M175.907,372.235c1.47,0,2.94,0,4.41,0c-1.47-0.98-2.94-0.49-4.41-0.49
				C175.907,371.746,175.907,371.746,175.907,372.235z"/>
			<path fill="#1f1f1f" d="M228.336,371.746c-0.49,0-0.98,0-1.47,0C227.356,371.746,227.846,371.746,228.336,371.746z"/>
			<path fill="#1f1f1f" d="M235.196,378.605c-0.49,0-0.98,0-1.96,0C233.726,379.585,234.216,379.585,235.196,378.605z"/>
			<path fill="#1f1f1f" d="M196.487,373.706c-0.49-0.49-0.98-0.49-1.47-0.49C195.017,373.706,195.997,373.706,196.487,373.706z"/>
			<path fill="#1f1f1f" d="M257.246,373.706c0-0.49-0.49-0.49-0.98-0.49C256.266,373.706,256.756,373.706,257.246,373.706z"/>
			<path fill="#1f1f1f" d="M212.167,373.706c0-0.49-0.49-0.49-0.98-0.49C211.187,373.706,211.677,373.706,212.167,373.706z"/>
			<path fill="#1f1f1f" d="M229.316,373.706c0-0.49-0.49-0.49-0.98-0.49C228.826,373.706,229.316,373.706,229.316,373.706z"/>
			<path fill="#1f1f1f" d="M176.397,379.095l-0.49-0.49C175.907,379.095,176.397,379.095,176.397,379.095z"/>
			<path fill="#1f1f1f" d="M260.186,373.706C260.186,373.215,259.696,373.215,260.186,373.706L260.186,373.706z"/>
			<path fill="#1f1f1f" d="M252.346,373.706C252.346,373.215,251.856,373.215,252.346,373.706L252.346,373.706z"/>
			<path fill="#1f1f1f" d="M246.956,373.706l-0.49-0.49C246.466,373.706,246.466,373.706,246.956,373.706z"/>
			<path fill="#1f1f1f" d="M232.746,373.706C232.746,373.215,232.256,373.215,232.746,373.706L232.746,373.706L232.746,373.706z"/>
			<path fill="#1f1f1f" d="M222.946,373.706C222.946,373.215,222.457,373.215,222.946,373.706L222.946,373.706z"/>
			<path fill="#1f1f1f" d="M238.626,372.726C238.626,372.235,238.136,372.235,238.626,372.726L238.626,372.726L238.626,372.726z"/>
			<path fill="#1f1f1f" d="M220.497,373.706l-0.49-0.49C220.006,373.706,220.006,373.706,220.497,373.706z"/>
			<path fill="#1f1f1f" d="M265.576,372.726l-0.49-0.49C265.085,372.726,265.085,372.726,265.576,372.726z"/>
			<path fill="#1f1f1f" d="M215.106,373.706C215.106,373.215,214.617,373.215,215.106,373.706
				C214.617,373.706,215.106,373.706,215.106,373.706z"/>
			<path fill="#1f1f1f" d="M205.307,374.195C205.307,373.706,205.307,373.706,205.307,374.195
				C205.307,373.706,205.307,373.706,205.307,374.195z"/>
			<path fill="#1f1f1f" d="M202.856,373.706l-0.49-0.49C202.367,373.706,202.856,373.706,202.856,373.706z"/>
			<path fill="#1f1f1f" d="M253.816,378.605L253.816,378.605C252.836,379.095,253.326,379.095,253.816,378.605
				C253.326,379.095,253.326,378.605,253.816,378.605z"/>
			<path fill="#1f1f1f" d="M257.736,371.746c0.98,0,1.96,0,2.94,0C259.696,371.255,258.716,371.255,257.736,371.746z"/>
		</g>
		<g>
			<path fill="#1f1f1f" d="M610.04,393.795c0-0.49,0-0.98,0-0.98l-0.49-0.49c-0.979,0-2.45,0-3.43,0c-171.987,0-0.979,0-172.478,0
				c-0.489,0-0.979,0-1.47,0c-2.45,0-2.45,0-2.45,2.94c1.471,0,2.94-0.49,3.92,0.49c0,0.49,0,0.98,0,1.96c1.471,0,2.45,0,3.92,0
				c168.558,0-4.899,0,163.658,0c0.489,0,1.47,0,1.959,0c1.471,0,1.961,0.49,1.961,1.96c0,2.45,0,4.41,0,6.86
				c0,0.979,0,1.47,0.979,1.96c0.49-1.471,0-2.94,0.49-4.9c0-2.939,0-6.37,0.489-9.31
				C608.08,393.305,609.061,393.795,610.04,393.795z"/>
			<path fill="#1f1f1f" d="M435.113,400.165c0-2.45,0-2.45,2.449-2.45c0.98,0,1.471,0,2.45,0c167.577,0-7.35,0,160.228,0
				c5.39,0,4.9-0.49,4.9,4.9c0,1.47,0,2.939,0,4.409c0,1.471,0.489,1.96,1.959,0.98c-0.979,0-0.979-0.98-0.979-1.96
				c0-2.45,0-4.41,0-6.86c0-1.47-0.49-2.449-1.96-1.96c-0.49,0-1.47,0-1.96,0c-168.558,0,4.899,0-163.657,0c-1.47,0-2.45,0-3.92,0"
				/>
			<path fill="#1f1f1f" d="M476.272,316.376c2.45-0.49,4.899-0.98,7.35-0.98c-1.96-1.47-4.899-0.49-6.86-1.96
				c1.961-1.47,4.41-0.98,6.86-1.47c-1.47-0.98-2.94,0-4.41-1.47c1.47-0.98,3.431-0.98,4.9-1.96c-1.96-0.49-3.431-0.49-4.9-0.98
				v-0.49c1.47-0.49,2.94-0.98,4.9-1.47c-2.45-0.49-4.9,0.49-7.351-0.98c2.94-0.49,5.391-0.98,7.84-0.98
				c-0.979-1.47-2.939-0.49-3.92-1.96c4.41,0,8.82,0,13.23,0c0.979,0,1.47,0.49,1.47,1.47c0,4.41,0,8.82,0,13.72
				c0,0.98-0.49,1.47-1.47,1.47c-1.96,0-1.96,0.98-1.96,2.45c0,0.49,0,0.98,0,1.47c0,21.56,0,43.609,0,65.169
				c0,3.92,0.489,3.92,4.41,3.43c0.979,0,1.47-0.49,1.47-1.47c0-0.49,0-0.98,0-1.96c0-28.42,0-56.349,0-84.279c0-0.49,0-0.98,0-1.47
				c0-1.47-0.49-1.96-1.96-1.96c-5.88,0-12.25,0-18.13,0c-1.47,0-1.96,0.49-1.96,1.96c0,0.49,0,0.98,0,1.96
				c0,27.929,0,55.859,0,83.789c0,3.92-0.49,3.43,3.43,3.43c2.45,0,4.41,0,6.86,0c1.47,0,2.449-0.49,1.96-1.96c0-0.49,0-0.98,0-1.96
				c0-21.56,0-43.119,0-65.169c0-0.49,0-0.98,0-1.96c0-1.47-0.49-1.96-1.96-1.96c-2.94,0-5.88,0-8.82,0
				C476.272,316.866,476.272,316.866,476.272,316.376z"/>
			<path fill="#1f1f1f" d="M512.042,383.015c0-1.47,0-3.92-0.49-5.88c-0.49-2.94-2.45-4.9-5.39-4.9c-1.96,0-2.94,0.98-2.94,2.94
				c0,0.98,0.49,1.96,0.49,3.43c0,1.47,0.49,2.45,1.96,2.45c0.979,0,1.47,0.49,1.47,1.96c0,1.96,0,3.92,0,5.88s0.49,1.96,2.45,1.96
				c1.47,0,2.45,0,2.45-1.96C512.042,386.445,512.042,384.975,512.042,383.015z"/>
			<path fill="#1f1f1f" d="M535.562,375.666c0,0.49,0.489,1.47,0.489,2.94c0,0.98,0,2.45,1.961,1.96
				c1.47-0.49,2.449,0.98,2.939,2.94c0,1.47,0,2.94,0,4.41c0,1.96,0.49,1.96,2.45,1.96c1.47,0,1.96,0,1.96-1.96
				c0-2.94,0-6.37,0-9.31c0-3.43-2.45-5.88-5.391-6.37C537.031,371.746,535.562,373.215,535.562,375.666z"/>
			<path fill="#1f1f1f" d="M570.841,383.015c0-1.47,0-3.92-0.49-5.88c-0.49-2.94-2.45-4.9-5.39-4.9c-1.96,0-2.94,0.98-2.94,2.94
				c0,0.98,0.49,1.96,0.49,3.43c0,1.47,0.49,2.45,1.96,2.45c0.98,0,1.47,0.49,1.47,1.96c0,1.96,0,3.92,0,5.88s0.49,1.96,2.45,1.96
				c1.47,0,2.45,0,2.45-1.96C570.841,386.445,570.841,384.975,570.841,383.015z"/>
			<path fill="#1f1f1f" d="M483.132,408.495c4.9,0,4.41,0.489,4.41-3.92c0-3.431-1.96-4.9-4.899-4.41
				c-2.94,0.49-3.92,0.979-3.92,3.92C478.723,408.984,478.232,408.495,483.132,408.495L483.132,408.495z"/>
			<path fill="#1f1f1f" d="M493.912,408.495c4.899,0,4.41,0.489,4.41-4.41c0-2.45-0.49-3.43-2.94-3.92c-1.47-0.49-2.939,0-3.92,0.49
				c-0.979,0.489-1.96,0.979-1.96,2.449c0,0.49,0,0.49,0,0.98C489.502,408.984,489.012,408.495,493.912,408.495z"/>
			<path fill="#1f1f1f" d="M525.762,408.495c4.899,0,4.41,0.489,4.41-4.41c0-2.45-0.49-2.94-2.45-3.92
				c-1.96-0.49-5.391,0-6.37,0.979c-0.49,0.49-0.49,0.98-0.49,1.471c0,0.979,0,2.449,0,3.43c0,1.47,0.49,1.96,1.96,1.96
				C524.291,408.495,525.271,408.495,525.762,408.495z"/>
			<path fill="#1f1f1f" d="M515.472,408.495c4.41,0,3.92,0.489,3.92-3.92c0-3.92-2.94-5.88-6.37-3.92
				c-0.979,0.489-1.47,0.979-1.47,1.96c0,0.489,0,0.979,0,1.47C511.552,408.984,511.062,408.495,515.472,408.495z"/>
			<path fill="#1f1f1f" d="M532.131,404.575c0,3.92-0.489,3.92,3.431,3.92c4.899,0,4.409,0.979,4.409-4.41
				c0-1.47-0.489-2.94-1.96-3.43c-1.96-0.49-3.43-0.49-4.899,0.489C531.642,402.125,532.621,403.595,532.131,404.575z"/>
			<path fill="#1f1f1f" d="M568.881,408.495c4.899,0,3.92,0.489,4.41-3.92c0-1.471,0.489-2.45-0.98-3.431
				c-1.47-0.979-3.43-0.979-4.899-0.489c-0.98,0.489-1.471,0.979-1.471,1.96c0,0.489,0,0.979,0,0.979
				C563.98,409.475,563.98,408.495,568.881,408.495z"/>
			<path fill="#1f1f1f" d="M505.182,408.495c4.9,0,3.92,0.489,3.92-4.41c0-2.94-0.979-3.92-3.92-3.92c-3.43,0-5.39,0.49-4.899,4.899
				c0,0.49,0,0.98,0,1.471c0,1.47,0.489,1.96,1.96,1.96C503.222,408.005,504.202,408.495,505.182,408.495z"/>
			<path fill="#1f1f1f" d="M587.99,408.495c0.49,0,0.98,0,0.98,0c2.449,0,2.449,0,2.449-2.94c0-0.979,0-1.47,0-2.45
				c0-2.449-1.47-3.43-3.43-3.43c-2.939,0-4.41,1.47-4.41,4.41C584.07,408.984,583.58,408.495,587.99,408.495z"/>
			<path fill="#1f1f1f" d="M558.591,408.495c4.41,0,3.43,0.489,3.92-3.92c0-2.94-1.47-4.41-4.41-4.41c-1.96,0-3.43,0.979-3.43,3.43
				c0,0.49,0,0.98,0,0.98C554.671,408.984,553.691,408.495,558.591,408.495z"/>
			<path fill="#1f1f1f" d="M578.681,408.495c4.899,0,4.41,0.979,4.41-4.41c0-2.45-0.49-2.94-2.94-3.43c-0.979,0-1.96,0-2.45,0
				c-2.449,0.489-2.939,0.979-2.939,3.43C574.271,408.984,573.78,408.005,578.681,408.495z"/>
			<path fill="#1f1f1f" d="M597.79,408.495c3.92,0,3.43,0.489,3.43-3.92c0,0,0,0,0-0.49c0-3.92-2.449-5.39-5.88-3.43
				c-0.979,0.489-1.47,0.979-1.47,2.449c0,0.49,0,0.98,0,1.471C593.87,408.495,593.87,408.005,597.79,408.495z"/>
			<path fill="#1f1f1f" d="M547.321,408.495c3.92,0,3.92,0.489,3.92-3.92c0,0,0,0,0-0.49c0-1.47,0.489-2.94-1.47-3.43
				c-1.961-0.98-3.431-0.49-5.391,0.489c-0.49,0.49-0.979,0.98-0.979,1.96c0,0.49,0,0.98,0,1.96
				C543.401,408.495,543.401,408.005,547.321,408.495z"/>
			<path fill="#1f1f1f" d="M472.842,408.005c3.921,0,3.431,0.49,3.431-3.92c0-3.43-2.45-5.39-5.88-3.92
				c-0.98,0.49-1.471,0.49-1.471,1.47c0,1.96,0,3.43,0,5.39c0,0.49,0.49,0.98,0.98,0.98
				C470.882,408.495,471.862,408.005,472.842,408.005z"/>
			<path fill="#1f1f1f" d="M610.04,393.795c-0.979,0-1.96-0.49-2.94,0.49C608.57,393.795,609.55,394.775,610.04,393.795z"/>
			<path fill="#1f1f1f" d="M609.55,391.835C610.04,392.325,610.04,392.325,609.55,391.835
				C610.53,392.325,610.04,391.835,609.55,391.835z"/>
		</g>
	</g>
</g>
<g enable-background="new    ">
	<path fill="#1f1f1f" d="M22.54,491.304c-0.49,0-0.49-0.49-0.49-0.98l-19.6-66.148v-0.49c0-0.98,0.49-0.98,1.47-0.98h16.66
		c0.98,0,1.47,0.49,1.47,1.471l8.33,32.339c0,0,0,0.49,0.49,0.49c0,0,0,0,0.49-0.49l6.37-32.339c0-0.98,0.98-1.471,1.47-1.471h14.21
		c0.98,0,1.47,0.49,1.47,1.471l7.35,32.339c0,0.49,0,0.49,0.49,0.49c0,0,0,0,0.49-0.49l7.35-32.339c0-0.98,0.49-1.471,1.47-1.471
		h16.17c0.49,0,0.98,0,0.98,0.49s0.49,0.49,0,1.47l-17.15,66.149c0,0.979-0.49,1.47-1.47,1.47h-15.68c-0.98,0-1.47-0.49-1.47-1.47
		l-6.86-33.81c0,0,0-0.49-0.49-0.49c0,0,0,0-0.49,0.49l-6.37,33.81c0,0.979-0.49,1.47-1.47,1.47h-14.7
		C23.03,491.793,22.54,491.793,22.54,491.304z"/>
	<path fill="#1f1f1f" d="M144.548,438.385c-0.49,0.489-0.49,0.489-0.98,0.489h-29.4c-0.49,0-0.49,0-0.49,0.49v9.31
		c0,0.49,0,0.49,0.49,0.49h18.13c0.49,0,0.98,0,0.98,0.49s0.49,0.49,0.49,0.979v12.74c0,0.49,0,0.979-0.49,0.979
		c-0.49,0.49-0.49,0.49-0.98,0.49h-18.13c-0.49,0-0.49,0-0.49,0.49v10.29c0,0.489,0,0.489,0.49,0.489h29.4c0.49,0,0.98,0,0.98,0.49
		s0.49,0.49,0.49,0.98v12.739c0,0.49,0,0.98-0.49,0.98c-0.49,0.489-0.49,0.489-0.98,0.489H97.019c-0.49,0-0.98,0-0.98-0.489
		c-0.49-0.49-0.49-0.49-0.49-0.98v-66.148c0-0.49,0-0.98,0.49-0.98c0.49-0.49,0.49-0.49,0.98-0.49h46.549c0.49,0,0.98,0,0.98,0.49
		s0.49,0.49,0.49,0.98v12.739C145.038,437.404,144.548,437.895,144.548,438.385z"/>
	<path fill="#1f1f1f" d="M195.507,456.514c2.94,1.471,4.9,3.92,6.37,6.37c1.47,2.45,1.96,5.88,1.96,9.31
		c0,6.86-2.45,11.76-6.86,15.19c-4.9,3.43-10.78,4.899-18.129,4.899h-26.459c-0.49,0-0.98,0-0.98-0.49
		c-0.49-0.489-0.49-0.489-0.49-0.979v-66.639c0-0.49,0-0.98,0.49-0.98c0.49-0.49,0.49-0.49,0.98-0.49h25.479
		c8.33,0,14.7,1.471,18.62,4.41c4.41,2.94,6.37,7.84,6.37,15.19c0,6.369-2.45,10.779-7.35,13.72
		C195.507,456.024,195.507,456.024,195.507,456.514z M169.537,438.874v9.8c0,0.49,0,0.49,0.49,0.49h7.84c4.9,0,7.35-1.96,7.35-5.39
		c0-3.431-2.45-5.39-7.35-5.39h-7.84C169.537,438.385,169.537,438.874,169.537,438.874z M185.707,470.233
		c0-3.92-2.45-5.39-6.86-5.39h-8.82c-0.49,0-0.49,0-0.49,0.49v10.29c0,0.489,0,0.489,0.49,0.489h8.82
		C183.257,476.113,185.707,474.153,185.707,470.233z"/>
	<path fill="#1f1f1f" d="M222.457,489.833c-3.92-1.96-7.35-4.409-9.31-7.84c-2.45-3.43-3.43-7.35-3.43-11.76v-0.979
		c0-0.49,0-0.98,0.49-0.98c0.49-0.489,0.49-0.489,0.98-0.489h15.19c0.49,0,0.98,0,0.98,0.489c0.49,0.49,0.49,0.49,0.49,0.98v0.49
		c0,1.96,0.98,3.43,2.94,4.899s4.41,1.96,7.84,1.96c2.45,0,3.92-0.49,5.39-1.47c1.47-0.98,1.47-1.96,1.47-3.43
		c0-1.471-0.49-2.45-1.96-3.431c-1.47-0.979-3.92-1.47-7.35-2.449l-2.94-0.98c-6.37-1.96-11.76-4.41-16.17-7.84
		s-6.37-7.84-6.37-14.21c0-3.92,0.98-7.84,3.43-10.779c2.45-3.431,5.39-5.88,9.31-7.351c3.92-1.47,8.33-2.449,13.229-2.449
		s9.8,0.979,13.72,2.939s7.35,4.41,9.8,8.33c2.45,3.92,3.43,7.35,3.43,11.76v0.98c0,0.489,0,0.979-0.49,0.979
		c-0.49,0.49-0.49,0.49-0.98,0.49h-15.189c-0.49,0-0.98,0-0.98-0.49s-0.98-0.979-0.98-1.47l0,0c0-1.96-0.98-3.92-2.45-5.39
		c-1.96-1.471-3.92-2.45-7.35-2.45c-1.96,0-3.92,0.49-4.9,1.47s-1.96,1.96-1.96,3.43c0,0.98,0.49,1.96,1.47,2.94
		c0.98,0.979,2.45,1.47,3.92,2.45c1.96,0.979,4.41,1.96,8.33,2.939c0.49,0,2.94,0.98,6.86,1.96c3.92,0.98,7.35,3.43,10.29,6.86
		c2.94,3.43,3.92,6.859,3.92,11.76c0,4.409-0.98,8.329-3.43,11.27c-2.45,3.43-5.39,5.88-9.31,7.35s-8.82,2.45-13.72,2.45
		C231.276,492.773,226.866,491.793,222.457,489.833z"/>
	<path fill="#1f1f1f" d="M269.985,491.304c-0.49-0.49-0.49-0.49-0.49-0.98v-66.148c0-0.49,0-0.98,0.49-0.98
		c0.49-0.49,0.49-0.49,0.98-0.49h15.189c0.49,0,0.98,0,0.98,0.49s0.49,0.49,0.49,0.98v66.148c0,0.49,0,0.98-0.49,0.98
		c-0.49,0.489-0.49,0.489-0.98,0.489h-15.189C270.966,491.793,270.476,491.793,269.985,491.304z"/>
	<path fill="#1f1f1f" d="M347.895,423.194c0.49,0.49,0.49,0.49,0.49,0.98v13.229c0,0.49,0,0.98-0.49,0.98
		c-0.49,0.489-0.49,0.489-0.98,0.489h-16.17c-0.489,0-0.489,0-0.489,0.49v50.959c0,0.49,0,0.98-0.49,0.98
		c-0.49,0.489-0.49,0.489-0.979,0.489h-15.19c-0.49,0-0.979,0-0.979-0.489c-0.49-0.49-0.49-0.49-0.49-0.98v-50.959
		c0-0.49,0-0.49-0.49-0.49h-15.68c-0.49,0-0.98,0-0.98-0.489c0-0.49-0.49-0.49-0.49-0.98v-13.229c0-0.49,0-0.98,0.49-0.98
		c0.49,0,0.49-0.49,0.98-0.49h51.449C347.404,422.704,347.404,422.704,347.895,423.194z"/>
	<path fill="#1f1f1f" d="M402.773,438.385c-0.49,0.489-0.49,0.489-0.98,0.489h-29.399c-0.489,0-0.489,0-0.489,0.49v9.31
		c0,0.49,0,0.49,0.489,0.49h18.13c0.49,0,0.98,0,0.98,0.49s0.489,0,0.489,0.49v12.739c0,0.49,0,0.98-0.489,0.98
		c-0.49,0.489-0.49,0.489-0.98,0.489h-18.13c-0.489,0-0.489,0-0.489,0.49v10.29c0,0.49,0,0.49,0.489,0.49h29.4
		c0.489,0,0.979,0,0.979,0.489c0,0.49,0.49,0.49,0.49,0.98v12.739c0,0.49,0,0.98-0.49,0.98c-0.49,0.49-0.49,0.49-0.979,0.49h-46.55
		c-0.49,0-0.979,0-0.979-0.49c-0.49-0.49-0.49-0.49-0.49-0.98v-65.658c0-0.49,0-0.98,0.49-0.98c0.489-0.49,0.489-0.49,0.979-0.49
		h46.549c0.49,0,0.98,0,0.98,0.49s0.49,0.49,0.49,0.98v12.739C403.264,437.404,403.264,437.895,402.773,438.385z"/>
	<path fill="#1f1f1f" d="M429.233,491.304c-0.49-0.49-0.49-0.49-0.49-0.98v-66.148c0-0.49,0-0.98,0.49-0.98
		c0.489-0.49,0.489-0.49,0.979-0.49h25.479c5.39,0,9.8,0.98,14.21,2.94c3.92,1.96,7.35,4.41,9.31,7.84
		c2.45,3.43,3.431,7.35,3.431,11.76v24.5c0,4.409-0.98,8.329-3.431,11.76c-2.449,3.43-5.39,5.88-9.31,7.84
		c-4.41,1.47-9.31,2.449-14.21,2.449h-24.989C430.213,491.793,429.723,491.793,429.233,491.304z M447.853,476.113h8.33
		c2.45,0,3.92-0.979,5.39-2.449c1.47-1.96,1.96-3.92,2.45-6.86v-18.13c0-2.939-0.49-4.899-1.96-6.859s-3.43-2.45-5.88-2.45h-8.33
		c-0.49,0-0.49,0-0.49,0.49v36.259C447.362,475.624,447.362,476.113,447.853,476.113z"/>
	<path fill="#1f1f1f" d="M501.262,489.833c-3.92-1.96-7.35-5.39-9.8-9.31s-3.43-8.819-3.43-13.72v-18.619
		c0-4.9,0.979-9.8,3.43-13.72s5.39-6.86,9.8-9.311c3.92-1.96,8.82-3.43,14.21-3.43s10.29,0.979,14.21,3.43
		c3.92,1.96,7.35,5.391,9.8,9.311s3.43,8.329,3.43,13.72v18.619c0,5.39-0.979,9.8-3.43,13.72s-5.39,6.86-9.8,9.31
		c-3.92,2.45-8.82,3.431-14.21,3.431C510.571,492.773,505.672,491.793,501.262,489.833z M522.331,474.153
		c1.471-1.96,2.45-4.409,2.45-7.35v-19.6c0-2.939-0.979-5.39-2.45-7.35c-1.47-1.96-3.92-2.94-6.369-2.94c-2.45,0-4.9,0.98-6.37,2.94
		s-2.45,4.41-2.45,7.35v19.6c0,2.94,0.98,5.39,2.45,7.35s3.92,2.94,6.37,2.94C518.411,477.094,520.861,476.113,522.331,474.153z"/>
	<path fill="#1f1f1f" d="M550.261,491.304c-0.489-0.49-0.489-0.49-0.489-0.98v-66.148c0-0.49,0-0.98,0.489-0.98
		c0.49-0.49,0.49-0.49,0.98-0.49h15.189c0.49,0,0.98,0,0.98,0.49s0.489,0.49,0.489,0.98v23.52v0.49h0.49l17.149-24.5
		c0.49-0.49,0.98-0.98,1.96-0.98h17.64c0.98,0,0.98,0.49,0.98,0.98s0,0.49-0.49,0.979l-20.09,28.42v0.49l21.07,36.259
		c0,0.49,0.489,0.49,0.489,0.98s-0.489,0.979-1.47,0.979H588.48c-0.98,0-1.47-0.489-1.96-0.979l-13.229-24.5c0,0,0-0.489-0.49-0.489
		c0,0-0.49,0-0.49,0.489l-3.92,6.37c0,0.49,0,0.49,0,0.49v16.659c0,0.49,0,0.98-0.49,0.98c-0.489,0.49-0.489,0.49-0.979,0.49h-15.19
		C550.751,491.793,550.751,491.793,550.261,491.304z"/>
</g>
</svg>
