<?xml version="1.0" encoding="utf-8"?>
<!-- Generator: Adobe Illustrator 16.0.0, SVG Export Plug-In . SVG Version: 6.00 Build 0)  -->
<!DOCTYPE svg PUBLIC "-//W3C//DTD SVG 1.1//EN" "http://www.w3.org/Graphics/SVG/1.1/DTD/svg11.dtd">
<svg version="1.1" id="Layer_1" xmlns="http://www.w3.org/2000/svg" xmlns:xlink="http://www.w3.org/1999/xlink" x="0px" y="0px"
	 width="324.667px" height="25px" viewBox="0 0 324.667 25" enable-background="new 0 0 324.667 25" xml:space="preserve">
<path fill="#AAB7C4" d="M21.7,6l-2.8,13h-3.4l2.8-13H21.7z M35.8,14.4l1.8-4.9l1,4.9H35.8z M39.6,19h3.1L40,6h-2.9
	c-0.6,0-1.2,0.4-1.4,1l-5,12h3.5l0.7-1.9h4.3L39.6,19z M30.8,14.7c0-3.4-4.7-3.6-4.7-5.1c0.1-0.7,0.7-1.1,1.4-1.1
	c1.1-0.1,2.3,0.1,3.3,0.6l0.6-2.8c-1-0.4-2.1-0.6-3.1-0.6c-3.3,0-5.7,1.8-5.7,4.3c0,1.9,1.7,2.9,2.9,3.5c1.3,0.6,1.8,1,1.7,1.6
	c0,0.9-1,1.301-2,1.301c-1.2,0-2.4-0.301-3.5-0.801L21.1,18.4c1.2,0.5,2.5,0.699,3.7,0.699C28.5,19.2,30.8,17.4,30.8,14.7 M16.9,6
	l-5.4,13H7.9L5.2,8.6c0-0.5-0.4-0.9-0.8-1.1C3.4,7,2.3,6.6,1.1,6.4L1.2,6h5.7c0.8,0,1.4,0.6,1.5,1.3l1.4,7.5L13.4,6H16.9z"/>
<path fill="#AAB7C4" d="M164.4,11.5v-1.3c0-0.5-0.5-1-1-1H162v2.3h-1.5V5h3.7c0.9-0.1,1.8,0.5,1.9,1.4v0.5c0,0.6-0.3,1.2-0.9,1.5
	c0.5,0.3,0.8,0.9,0.7,1.5v1.6H164.4 M161.9,7.7h1.6c0.3,0.1,0.7-0.1,0.8-0.4c0.1-0.3-0.1-0.7-0.4-0.8h-2V7.7 M183.2,11.5l-2.4-4.4
	v4.4h-3l-0.5-1.4h-2.8l-0.5,1.4h-3.2c0,0-2-0.3-2-3.1c0-3.4,1.7-3.5,2.4-3.5h1.9v1.5h-1.5c-0.7,0.1-1.2,0.7-1.1,1.4v0.5
	c0,2.2,2.6,1.5,2.7,1.5l1.9-4.9h2.1l2.3,5.9V5h2.1l2.4,4.3V5h1.5v6.6L183.2,11.5 M175.2,8.5h1.5L176,6.6L175.2,8.5 M152.5,11.5V7
	l-1.9,4.5h-1.2L147.5,7v4.5h-3l-0.5-1.4h-2.8l-0.5,1.4H139l2.5-6.6h2.1l2.3,6V5h2.4l1.7,4.1l1.7-4.1h2.4v6.6L152.5,11.5 M141.8,8.5
	h1.5l-0.7-1.9L141.8,8.5 M154.9,11.5V5h4.7v1.5h-3.2v1h3.1V9h-3.1v1.1h3.2v1.4H154.9 M166.7,11.6V5h1.5v6.6H166.7 M170,20v-1.3
	c0-0.601-0.5-1-1.1-1h-1.6V20h-1.6v-6.5h3.9c1-0.2,1.9,0.5,2,1.5v0.4c0,0.6-0.3,1.199-0.9,1.5c0.5,0.3,0.8,0.899,0.8,1.5V20H170
	 M167.4,16.2h1.7c0.3,0.1,0.7-0.101,0.8-0.4s-0.1-0.7-0.4-0.8c-0.1-0.1-0.3-0.1-0.4,0h-1.7V16.2 M159.3,20h-1.4l-1.7-1.9l-1.7,1.9
	h-6v-6.5h5.9l1.8,2.1l1.9-2.1h5.1c1-0.1,1.9,0.5,2,1.5v0.4c0,1.899-0.7,2.5-2.8,2.5h-1.6V20H159.3 M157.3,16.8l2,2.3v-4.5
	L157.3,16.8 M150.1,18.6h3.4l1.6-1.8l-1.6-1.8h-3.4v1h3.3v1.5h-3.3V18.6 M160.9,16.2h1.7c0.3,0.1,0.7-0.101,0.8-0.4
	s-0.1-0.7-0.4-0.8c-0.1-0.1-0.3-0.1-0.4,0h-1.7V16.2 M181,20h-2.9v-1.5h2.5c0,0,0.9,0.1,0.9-0.5s-1.4-0.5-1.4-0.5
	c-1.1,0.2-2-0.6-2.2-1.6V15.6c-0.1-1,0.7-1.899,1.7-2h3.4V15h-2.5c0,0-0.9-0.2-0.9,0.5c0,0.5,1.2,0.5,1.2,0.5s2.5-0.2,2.5,1.8
	c0.1,1.101-0.6,2.101-1.8,2.3h-0.4L181,20 M172.4,20v-6.5h5V15H174v1h3.3v1.5H174v1.1h3.4V20H172.4 M186.6,20h-2.9v-1.5h2.5
	c0,0,0.9,0.1,0.9-0.5s-1.4-0.5-1.4-0.5c-1.1,0.2-2-0.6-2.2-1.7v-0.3c-0.1-1,0.7-1.9,1.7-2h3.4V15h-2.5c0,0-0.9-0.2-0.9,0.5
	c0,0.5,1.2,0.5,1.2,0.5s2.5-0.2,2.5,1.8c0.1,1.101-0.6,2.101-1.8,2.3h-0.4C186.7,20,186.7,20,186.6,20 M203,8h-2.5v8.9h2.5
	c1.1,0.1,2.2-0.301,3.1-1c1-0.9,1.601-2.101,1.601-3.4c0.1-2.4-1.8-4.4-4.2-4.5H203z M205,14.7c-0.6,0.5-1.5,0.8-2.3,0.7h-0.5V9.5
	h0.5c0.8-0.1,1.7,0.2,2.3,0.7c0.6,0.6,0.9,1.4,0.9,2.2C205.9,13.3,205.6,14.1,205,14.7z M208.4,16.9h1.699V8H208.4V16.9z
	 M214.2,11.4c-1-0.4-1.3-0.6-1.3-1.1c0.1-0.6,0.6-1.1,1.199-1c0.5,0,1,0.3,1.4,0.7l0.9-1.2c-0.7-0.6-1.601-1-2.5-1
	c-1.4-0.1-2.601,1-2.7,2.4v0.1c0,1.2,0.5,1.9,2.1,2.4c0.4,0.1,0.8,0.3,1.2,0.5c0.3,0.2,0.5,0.5,0.5,0.899c0,0.7-0.6,1.301-1.2,1.301
	h-0.1c-0.8,0-1.5-0.5-1.8-1.2l-1.101,1.1c0.601,1.101,1.8,1.7,3,1.7c1.601,0.1,2.9-1.1,3-2.7V14C216.7,12.8,216.2,12.2,214.2,11.4z
	 M217.3,12.5c0,2.5,2,4.6,4.5,4.6c0.8,0,1.5-0.199,2.2-0.5v-2c-0.5,0.601-1.2,1-2,1c-1.6,0-2.9-1.199-2.9-2.8v-0.2
	c-0.1-1.6,1.2-3,2.801-3.1c0.8,0,1.6,0.4,2.1,1v-2c-0.6-0.4-1.4-0.5-2.1-0.5C219.3,7.8,217.3,9.9,217.3,12.5z M237.6,14l-2.3-6h-1.8
	l3.7,9.1h0.899l3.7-9.1H240L237.6,14L237.6,14z M242.6,16.9h4.801v-1.5H244.3V13h3v-1.5h-3v-2h3.101V8H242.6V16.9z M254.1,10.6
	c0-1.7-1.1-2.6-3.1-2.6h-2.5v8.9h1.7V13.3h0.2l2.3,3.601h2.1l-2.7-3.7C253.3,13,254.2,11.9,254.1,10.6L254.1,10.6z M250.7,12.1h-0.5
	V9.4h0.5c1.1,0,1.6,0.5,1.6,1.3C252.3,11.6,251.8,12.1,250.7,12.1z"/>
<path opacity="0.5" fill="#AAB7C4" enable-background="new    " d="M229.2,7.9c-2.5,0-4.601,2-4.601,4.6c0,2.5,2,4.6,4.601,4.7
	c2.6,0.1,4.6-2,4.7-4.6C233.8,10,231.8,7.9,229.2,7.9z"/>
<g>
	<path fill="#AAB7C4" d="M83.2,10c-0.6,0-1.4,0.2-1.8,0.9c-0.3-0.5-0.9-0.9-1.7-0.9c-0.5,0-1.1,0.1-1.5,0.7v-0.6h-1.1V15h1.1v-2.7
		c0-0.8,0.6-1.3,1.3-1.3s1.1,0.5,1.1,1.3V15h1.1v-2.7c0-0.8,0.6-1.3,1.3-1.3s1.1,0.5,1.1,1.3V15h1.1v-3C85.2,10.8,84.4,10,83.2,10z
		 M90.1,10.8c-0.3-0.4-0.8-0.7-1.5-0.7c-1.4,0-2.4,1.1-2.4,2.6s1.1,2.6,2.4,2.6c0.7,0,1.2-0.3,1.5-0.7V15h1.1v-4.9h-1.1V10.8z
		 M88.7,14.2c-0.9,0-1.5-0.7-1.5-1.6s0.6-1.6,1.5-1.6c0.9,0,1.5,0.7,1.5,1.6S89.6,14.2,88.7,14.2z M94.9,12.1L94.4,12
		c-0.4-0.1-0.8-0.2-0.8-0.5s0.3-0.6,0.9-0.6s1.2,0.2,1.5,0.4l0.5-0.8c-0.5-0.3-1.2-0.5-2-0.5c-1.2,0-2,0.6-2,1.6
		c0,0.8,0.6,1.3,1.6,1.4l0.5,0.1c0.6,0.101,0.8,0.301,0.8,0.5c0,0.4-0.4,0.601-1.1,0.601c-0.8,0-1.3-0.2-1.6-0.5l-0.5,0.8
		c0.7,0.5,1.6,0.6,2.1,0.6c1.4,0,2.2-0.699,2.2-1.6C96.6,12.7,96,12.3,94.9,12.1z M100.3,14.2c-0.4,0-0.8-0.3-0.8-0.9v-2.1h1.9v-1
		h-1.9V8.7h-1.1v1.5h-1v1h1v2.1c0,1.3,0.6,1.9,1.7,1.9c0.6,0,1.1-0.2,1.5-0.5l-0.4-0.9C100.9,14,100.6,14.2,100.3,14.2z M104.7,10
		c-1.4,0-2.4,1-2.4,2.6s1,2.6,2.5,2.6c0.7,0,1.4-0.2,2-0.7l-0.5-0.8c-0.4,0.3-0.9,0.5-1.4,0.5c-0.7,0-1.3-0.4-1.4-1.2h3.6v-0.4
		C107,11.1,106.1,10,104.7,10z M103.4,12.2c0.1-0.7,0.5-1.2,1.3-1.2c0.7,0,1.1,0.4,1.2,1.2H103.4z M109.3,10.7v-0.6h-1.1V15h1.1
		v-2.7c0-0.8,0.5-1.3,1.2-1.3c0.3,0,0.6,0.1,0.8,0.2l0.3-1.1c-0.2-0.1-0.5-0.1-0.8-0.1C110.1,10,109.6,10.2,109.3,10.7z M114.3,11
		c0.5,0,0.8,0.2,1.2,0.5l0.7-0.7c-0.4-0.5-1.1-0.8-1.8-0.8c-1.5,0-2.6,1.1-2.6,2.6c0,1.5,1,2.6,2.6,2.6c0.7,0,1.4-0.3,1.8-0.8
		l-0.7-0.7c-0.3,0.3-0.7,0.5-1.2,0.5c-0.8,0-1.4-0.601-1.4-1.6C112.9,11.6,113.5,11,114.3,11z M120.7,10.8c-0.3-0.4-0.8-0.7-1.5-0.7
		c-1.4,0-2.4,1.1-2.4,2.6s1.1,2.6,2.4,2.6c0.7,0,1.2-0.3,1.5-0.7V15h1.1v-4.9h-1.1V10.8z M119.3,14.2c-0.9,0-1.5-0.7-1.5-1.6
		s0.6-1.6,1.5-1.6c0.9,0,1.5,0.7,1.5,1.6S120.2,14.2,119.3,14.2z M124.4,10.7v-0.6h-1.1V15h1.1v-2.7c0-0.8,0.5-1.3,1.2-1.3
		c0.3,0,0.6,0.1,0.8,0.2l0.3-1.1c-0.2-0.1-0.5-0.1-0.8-0.1C125.2,10,124.7,10.2,124.4,10.7z M130.8,7.7v3c-0.3-0.4-0.8-0.7-1.5-0.7
		c-1.4,0-2.4,1.1-2.4,2.6c0,1.5,1.1,2.6,2.4,2.6c0.7,0,1.2-0.3,1.5-0.7V15h1.1V7.7H130.8z M129.4,14.2c-0.9,0-1.5-0.7-1.5-1.6
		s0.6-1.6,1.5-1.6s1.5,0.7,1.5,1.6S130.3,14.2,129.4,14.2z M57.2,12.6c0-2.4,1.1-4.5,2.8-5.9c-1.3-1-2.9-1.6-4.6-1.6
		C51.3,5,48,8.4,48,12.6c0,4.2,3.3,7.6,7.4,7.6c1.7,0,3.3-0.601,4.6-1.601C58.3,17.1,57.2,15,57.2,12.6z"/>
	<path opacity="0.5" fill="#AAB7C4" enable-background="new    " d="M64.6,5c-1.7,0-3.3,0.6-4.6,1.6c1.7,1.4,2.8,3.5,2.8,5.9
		c0,2.4-1.1,4.5-2.8,5.9c1.3,1,2.9,1.6,4.6,1.6c4.1,0,7.4-3.4,7.4-7.5C72,8.4,68.7,5,64.6,5z"/>
	<path opacity="0.75" fill="#AAB7C4" enable-background="new    " d="M62.8,12.6c0-2.4-1.1-4.5-2.8-5.9c-1.7,1.4-3.8,3.5-3.8,5.9
		s2,4.5,3.8,5.9C61.7,17.1,62.8,15,62.8,12.6z"/>
</g>
<g id="UHcgl3.tif">
	<g>
		<path fill-rule="evenodd" clip-rule="evenodd" fill="#AAB7C4" d="M282.33,16.47c0.127-0.335,0.14-0.692,0.195-1.041
			c0.365-2.276,0.721-4.554,1.082-6.831c0.056-0.353,0.194-0.464,0.543-0.464c1.1,0.001,2.2,0,3.3,0.01
			c0.44,0.003,0.872,0.085,1.28,0.255c0.744,0.309,1.153,0.87,1.216,1.668c0.062,0.804-0.098,1.575-0.476,2.286
			c-0.603,1.135-1.63,1.552-2.845,1.611c-0.404,0.02-0.81,0.009-1.214,0.011c-0.336,0.003-0.479,0.127-0.53,0.454
			c-0.106,0.672-0.212,1.345-0.32,2.018c-0.05,0.317-0.194,0.443-0.517,0.445c-0.432,0.002-0.864-0.007-1.295,0.003
			c-0.176,0.005-0.318-0.033-0.42-0.181C282.33,16.632,282.33,16.551,282.33,16.47z M285.785,12.218
			c0.002,0.003,0.002,0.005,0.002,0.009c0.188-0.012,0.377-0.017,0.563-0.036c0.837-0.088,1.24-0.544,1.241-1.396
			c0.001-0.475-0.23-0.755-0.696-0.849c-0.313-0.063-0.63-0.046-0.946-0.048c-0.303-0.002-0.366,0.054-0.412,0.344
			c-0.093,0.591-0.181,1.185-0.28,1.775c-0.025,0.148-0.015,0.228,0.166,0.205C285.542,12.206,285.664,12.218,285.785,12.218z"/>
		<path fill-rule="evenodd" clip-rule="evenodd" fill="#AAB7C4" d="M297.804,18.9c-0.153-0.147-0.146-0.294-0.022-0.465
			c0.474-0.655,0.936-1.321,1.409-1.977c0.084-0.116,0.1-0.21,0.052-0.348c-0.527-1.527-1.046-3.059-1.566-4.59
			c-0.116-0.342-0.025-0.471,0.329-0.471c0.433-0.001,0.864-0.001,1.296,0c0.31,0,0.438,0.095,0.526,0.393
			c0.271,0.904,0.541,1.808,0.812,2.711c0.011,0.038,0.026,0.075,0.051,0.145c0.183-0.268,0.352-0.515,0.52-0.762
			c0.499-0.737,1.003-1.471,1.498-2.211c0.128-0.191,0.282-0.287,0.519-0.28c0.445,0.011,0.891,0.005,1.336,0.001
			c0.135,0,0.259,0.01,0.327,0.148c0.062,0.126,0.013,0.232-0.061,0.338c-1.656,2.388-3.311,4.777-4.969,7.164
			c-0.053,0.076-0.128,0.136-0.193,0.202C299.046,18.9,298.424,18.9,297.804,18.9z"/>
		<path opacity="0.5" fill-rule="evenodd" clip-rule="evenodd" fill="#AAB7C4" enable-background="new    " d="M308.568,13.974
			c-0.243,0-0.486-0.003-0.729,0c-0.285,0.005-0.437,0.128-0.484,0.413c-0.119,0.725-0.23,1.45-0.347,2.175
			c-0.041,0.252-0.127,0.327-0.376,0.328c-0.499,0.002-0.998,0.002-1.497,0c-0.259-0.002-0.356-0.119-0.317-0.372
			c0.368-2.335,0.738-4.67,1.108-7.006c0.049-0.306,0.096-0.613,0.142-0.919c0.05-0.323,0.201-0.459,0.529-0.46
			c1.039-0.001,2.078-0.003,3.118,0.001c0.433,0.001,0.858,0.054,1.273,0.187c0.854,0.275,1.359,0.85,1.424,1.745
			c0.068,0.938-0.138,1.83-0.676,2.613c-0.573,0.836-1.427,1.181-2.4,1.271c-0.254,0.022-0.511,0.003-0.768,0.003
			C308.568,13.96,308.568,13.966,308.568,13.974z M308.235,12.217c0,0.002,0,0.005,0.002,0.007c0.188-0.011,0.375-0.022,0.564-0.033
			c0.907-0.058,1.253-0.619,1.245-1.45c-0.005-0.44-0.233-0.699-0.664-0.79c-0.367-0.077-0.739-0.049-1.11-0.05
			c-0.141,0-0.227,0.09-0.248,0.223c-0.105,0.659-0.203,1.318-0.309,1.977c-0.016,0.094,0.004,0.121,0.095,0.117
			C307.953,12.213,308.095,12.217,308.235,12.217z"/>
		<path fill-rule="evenodd" clip-rule="evenodd" fill="#AAB7C4" d="M294.054,16.254c-0.1,0.019-0.135,0.08-0.187,0.12
			c-0.932,0.706-1.956,0.868-3.032,0.433c-0.838-0.339-1.212-1.059-1.326-1.919c-0.201-1.528,0.68-3.092,2.088-3.709
			c0.771-0.338,1.57-0.353,2.374-0.124c0.326,0.094,0.598,0.277,0.788,0.593c0.067-0.115,0.065-0.223,0.081-0.324
			c0.029-0.196,0.136-0.277,0.331-0.275c0.458,0.004,0.918,0.001,1.376,0.002c0.273,0.001,0.366,0.103,0.323,0.38
			c-0.103,0.687-0.213,1.373-0.321,2.058c-0.157,0.992-0.315,1.985-0.475,2.977c-0.048,0.299-0.19,0.424-0.491,0.426
			c-0.404,0.004-0.81,0.002-1.214,0.001c-0.301-0.001-0.386-0.102-0.345-0.399C294.035,16.419,294.043,16.346,294.054,16.254z
			 M292.833,15.423c0.863-0.011,1.533-0.585,1.68-1.435c0.123-0.714-0.252-1.302-0.918-1.439c-0.966-0.2-1.893,0.459-2.028,1.442
			C291.446,14.859,291.957,15.434,292.833,15.423z"/>
		<path opacity="0.5" fill-rule="evenodd" clip-rule="evenodd" fill="#AAB7C4" enable-background="new    " d="M317.228,11.645
			c0.057-0.115,0.054-0.224,0.072-0.328c0.031-0.177,0.127-0.271,0.316-0.269c0.48,0.003,0.959-0.002,1.438,0.002
			c0.214,0.001,0.324,0.132,0.293,0.34c-0.148,0.952-0.301,1.902-0.451,2.854c-0.116,0.732-0.233,1.463-0.35,2.195
			c-0.051,0.321-0.191,0.448-0.513,0.449c-0.404,0.002-0.809,0.002-1.214,0c-0.286-0.001-0.379-0.112-0.336-0.391
			c0.012-0.079,0.026-0.159,0.04-0.242c-0.089-0.01-0.12,0.062-0.168,0.1c-0.838,0.664-1.783,0.844-2.799,0.55
			c-0.938-0.272-1.409-0.978-1.567-1.901c-0.277-1.629,0.691-3.312,2.237-3.893c0.744-0.281,1.504-0.273,2.261-0.04
			C316.799,11.168,317.046,11.361,317.228,11.645z M315.275,15.421c0.798,0.003,1.448-0.487,1.662-1.254
			c0.22-0.79-0.16-1.479-0.895-1.622c-0.958-0.185-1.859,0.455-2.004,1.423C313.907,14.843,314.397,15.418,315.275,15.421z"/>
		<path opacity="0.5" fill-rule="evenodd" clip-rule="evenodd" fill="#AAB7C4" enable-background="new    " d="M321.846,8.133
			c0.196,0,0.392,0,0.587,0c0.356,0,0.44,0.089,0.388,0.436c-0.109,0.705-0.226,1.41-0.336,2.116
			c-0.208,1.317-0.413,2.634-0.619,3.951c-0.096,0.612-0.19,1.226-0.289,1.836c-0.046,0.283-0.198,0.415-0.482,0.417
			c-0.404,0.004-0.809,0.004-1.214,0.001c-0.254-0.002-0.349-0.128-0.31-0.377c0.292-1.85,0.584-3.698,0.875-5.548
			c0.133-0.845,0.266-1.691,0.4-2.535c0.037-0.23,0.116-0.295,0.354-0.297C321.414,8.13,321.631,8.133,321.846,8.133z"/>
	</g>
</g>
<path opacity="0.5" fill-rule="evenodd" clip-rule="evenodd" fill="#AAB7C4" enable-background="new    " d="M277.094,7.524
	c0.01-0.005,0.019-0.011,0.028-0.016c0.489,0.233,0.849,0.602,1.101,1.078c0.287,0.542,0.369,1.129,0.342,1.73
	c-0.041,0.924-0.247,1.814-0.649,2.651c-0.624,1.296-1.653,2.094-3.036,2.452c-0.614,0.159-1.239,0.22-1.872,0.222
	c-0.144,0-0.286-0.002-0.431,0.001c-0.391,0.005-0.652,0.222-0.718,0.606c-0.087,0.515-0.163,1.032-0.247,1.549
	c-0.113,0.71-0.223,1.421-0.348,2.129c-0.058,0.339-0.322,0.546-0.663,0.548c-0.931,0.001-1.862,0.001-2.793,0
	c-0.296-0.001-0.467-0.21-0.421-0.503c0.073-0.477,0.145-0.953,0.217-1.431c0.164-1.042,0.328-2.085,0.494-3.128
	c0.104-0.659,0.213-1.318,0.317-1.979c0.013-0.079,0.062-0.149,0.056-0.232c0.207-0.375,0.536-0.485,0.947-0.47
	c0.486,0.018,0.975,0.004,1.463,0.004c0.663,0,1.318-0.066,1.965-0.22c0.939-0.224,1.784-0.628,2.493-1.295
	c0.604-0.569,1.025-1.259,1.322-2.027C276.869,8.654,277.02,8.099,277.094,7.524z"/>
<path fill-rule="evenodd" clip-rule="evenodd" fill="#A5AFB7" d="M277.094,7.524c-0.074,0.574-0.225,1.13-0.433,1.669
	c-0.297,0.769-0.718,1.458-1.322,2.027c-0.709,0.667-1.554,1.072-2.493,1.295c-0.646,0.153-1.302,0.22-1.965,0.22
	c-0.488,0-0.977,0.014-1.463-0.004c-0.411-0.016-0.74,0.094-0.947,0.47c0.03-0.353,0.104-0.699,0.16-1.048
	c0.067-0.415,0.123-0.831,0.188-1.246c0.041-0.267,0.101-0.532,0.132-0.8c0.034-0.305,0.109-0.601,0.149-0.903
	c0.077-0.579,0.18-1.154,0.271-1.73c0.047-0.297,0.365-0.542,0.672-0.543c1.494-0.003,2.988-0.01,4.482,0.004
	c0.394,0.004,0.785,0.06,1.178,0.123c0.46,0.075,0.901,0.197,1.32,0.399C277.057,7.472,277.09,7.48,277.094,7.524z"/>
<path fill-rule="evenodd" clip-rule="evenodd" fill="#AAB7C4" d="M267.604,18.54c-0.008,0.002-0.016,0-0.021-0.007
	c-0.037-0.048-0.09-0.028-0.137-0.028c-1.035-0.001-2.072-0.001-3.108,0c-0.046,0-0.099-0.019-0.139,0.026
	c-0.263-0.039-0.423-0.256-0.382-0.532c0.082-0.558,0.171-1.114,0.258-1.671c0.201-1.275,0.404-2.552,0.607-3.828
	c0.227-1.44,0.453-2.879,0.682-4.319c0.229-1.458,0.467-2.914,0.684-4.373c0.068-0.461,0.43-0.755,0.871-0.753
	c1.862,0.01,3.724-0.011,5.586,0.01c0.973,0.012,1.941,0.125,2.834,0.559c1.152,0.56,1.773,1.486,1.843,2.774
	c0.018,0.332-0.009,0.661-0.057,0.989c-0.006,0.04-0.001,0.08-0.002,0.12c-0.01,0.005-0.019,0.011-0.028,0.016
	c-0.004-0.044-0.037-0.053-0.07-0.068c-0.419-0.202-0.86-0.325-1.32-0.399c-0.393-0.063-0.784-0.119-1.178-0.123
	c-1.494-0.014-2.988-0.007-4.482-0.004c-0.307,0.001-0.625,0.246-0.672,0.543c-0.091,0.576-0.193,1.151-0.271,1.73
	c-0.04,0.302-0.115,0.599-0.149,0.903c-0.031,0.268-0.091,0.533-0.132,0.8c-0.065,0.415-0.121,0.832-0.188,1.246
	c-0.057,0.349-0.13,0.695-0.16,1.048c0.006,0.083-0.043,0.153-0.056,0.232c-0.104,0.66-0.213,1.319-0.317,1.979
	C267.932,16.455,267.768,17.498,267.604,18.54z"/>
</svg>
