<?xml version="1.0" encoding="utf-8"?>
<!-- Generator: Adobe Illustrator 23.0.3, SVG Export Plug-In . SVG Version: 6.00 Build 0)  -->
<svg version="1.1" id="Layer_1" xmlns="http://www.w3.org/2000/svg" xmlns:xlink="http://www.w3.org/1999/xlink" x="0px" y="0px"
	 viewBox="0 0 124.9 40.1" style="enable-background:new 0 0 124.9 40.1;" xml:space="preserve">
<style type="text/css">
	.st0{fill-rule:evenodd;clip-rule:evenodd;fill:#2B2A2A;}
	.st1{fill:#2B2A2A;}
	.st2{fill:#FF0000;}
</style>
<g>
	<g>
		<path class="st0" d="M3.2,21.7c1,0,1.9,0,2.9,0c0.2,0,0.3,0,0.2-0.2c-0.1-0.1-0.2-0.1-0.3-0.1c-0.9,0-1.8,0-2.7,0
			c-0.1,0-0.3,0-0.4,0.1C3,21.6,3.1,21.7,3.2,21.7z M15.3,21.8c0.1,0,0-0.1,0-0.2c0-0.3-0.1-0.4-0.4-0.4c-1.1,0-2.2,0-3.2,0
			c-0.1,0-0.1,0-0.2,0c-0.1,0-0.2,0.1-0.2,0.2c0,0.1,0.1,0.2,0.2,0.2c0.1,0,0.3,0,0.4,0c1.1,0,2.2,0,3.3,0
			C15.2,21.8,15.2,21.9,15.3,21.8z M20.4,21.2c-0.3,0-0.4,0.1-0.4,0.4c0,1.1-0.1,0.9,0.9,0.9c0.5,0,1,0,1.5,0c0.3,0,0.4-0.1,0.4-0.4
			c0-0.3,0-0.6,0-0.9c0,0-0.1-0.1-0.1-0.1C21.9,21.2,21.1,21.2,20.4,21.2z M19.2,22.6c0.2,0,0.3-0.1,0.3-0.3c0.1-1,0.1-1-0.9-1
			c-0.8,0-1.7,0-2.5,0c-0.3,0-0.4,0.1-0.4,0.4c0,1.2-0.1,0.9,0.9,1c0.3,0,0.7,0,1,0c0,0,0,0,0,0C18.2,22.6,18.7,22.6,19.2,22.6z
			 M10.5,22.6c0.2,0,0.3,0,0.3-0.3c0-0.2-0.2-0.2-0.3-0.2c-1.1,0-2.3,0-3.4,0c-0.2,0-0.3,0-0.3,0.2c0,0.2,0.1,0.2,0.3,0.2
			c0.6,0,1.1,0,1.7,0c0,0,0,0,0,0C9.3,22.6,9.9,22.6,10.5,22.6z M15,22.6c0.1,0,0.3,0,0.3-0.2c0-0.2-0.1-0.3-0.3-0.3
			c-1.1,0-2.3,0-3.4,0c-0.2,0-0.3,0-0.3,0.3c0,0.2,0.2,0.2,0.3,0.2c0.6,0,1.1,0,1.7,0v0C13.9,22.6,14.4,22.6,15,22.6z M6,22.6
			c0.2,0,0.3,0,0.3-0.2c0-0.2-0.2-0.2-0.4-0.2c-0.9,0-1.8,0-2.7,0c-0.2,0-0.3,0-0.3,0.2c0,0.2,0.2,0.2,0.4,0.2c0.4,0,0.9,0,1.3,0
			C5.1,22.6,5.5,22.6,6,22.6z"/>
		<path class="st0" d="M79.3,3.8c0.5-0.1,1-0.2,1.5-0.2c-0.4-0.3-1-0.1-1.4-0.4c0.4-0.3,0.9-0.1,1.4-0.3c-0.3-0.2-0.6,0-0.9-0.3
			c0.3-0.2,0.7-0.2,1-0.4c-0.4-0.1-0.7-0.1-1-0.2c0,0,0-0.1,0-0.1c0.3-0.1,0.6-0.2,1-0.3c-0.5-0.1-1,0.1-1.5-0.2
			c0.6-0.1,1.1-0.2,1.6-0.2C80.6,0.9,80.2,1,80,0.7c0.9,0,1.8,0,2.7,0C82.9,0.7,83,0.7,83,1c0,0.9,0,1.8,0,2.8C83,3.9,82.9,4,82.7,4
			c-0.4,0-0.4,0.2-0.4,0.5c0,0.1,0,0.2,0,0.3c0,4.4,0,8.9,0,13.3c0,0.8,0.1,0.8,0.9,0.7c0.2,0,0.3-0.1,0.3-0.3c0-0.1,0-0.2,0-0.4
			c0-5.7,0-11.5,0-17.2c0-0.1,0-0.2,0-0.3c0-0.3-0.1-0.4-0.4-0.4c-1.2,0-2.5,0-3.7,0c-0.3,0-0.4,0.1-0.4,0.4c0,0.1,0,0.2,0,0.4
			c0,5.7,0,11.4,0,17.1c0,0.8-0.1,0.7,0.7,0.7c0.4,0,0.9,0,1.3,0c0.3,0,0.5-0.1,0.4-0.4c0-0.1,0-0.2,0-0.4c0-4.4,0-8.8,0-13.3
			c0-0.1,0-0.2,0-0.4C81.5,4.1,81.4,4,81,4c-0.6,0-1.2,0-1.8,0C79.3,4,79.3,3.9,79.3,3.8z"/>
		<g>
			<path class="st0" d="M30.7,17.8c0-0.6,0-1.1,0-1.7c0-0.1,0-0.2-0.2-0.3c-0.2,0-0.2,0.1-0.2,0.2c0,0.2,0,0.5,0,0.7
				c0,0.3-0.2,0.4-0.4,0.4c-0.2,0-0.5,0.1-0.5-0.3c0-0.2,0-0.4,0-0.6c0-0.2,0-0.4-0.2-0.4c-0.3,0-0.2,0.2-0.2,0.4c0,0.1,0,0.2,0,0.3
				c0,0.6,0,1.1,0,1.7c0,0.6,0,0.6-0.6,0.6c-1.2,0-1,0.1-1-1c0-0.3,0-0.7,0-1c0-0.1-0.1-0.2-0.2-0.2c-0.1,0-0.2,0.1-0.2,0.2
				c0,0.1,0,0.2,0,0.4c0,0.2-0.1,0.3-0.3,0.3c-0.2,0-0.4-0.1-0.3-0.3c0-0.1,0-0.2,0-0.4c0-0.1-0.1-0.2-0.2-0.2c-0.3,0-0.4,0-0.4,0.4
				c0,0.5,0,1,0,1.5c0,0.2,0,0.3-0.2,0.4c-0.3,0-0.2-0.2-0.2-0.3c0-0.6,0-1.2,0-1.8c0-0.7,0-0.7-0.7-0.8c0,0-0.1-0.1-0.1-0.1
				c0.2-0.4,0.4-0.7,0.5-1.1c0.2-0.5,0.5-0.6,0.9-0.6c1.3,0,2.6,0,3.9,0c0.6,0,0.6,0,0.6-0.6c0-0.1,0-0.3,0-0.4c0-1.5,0-7.2,0-8.7
				c0-0.4,0.1-0.5,0.5-0.5C31.1,4,31,4.3,31,4.5c0,3.1,0,10.6,0,13.7c0,0.2,0.1,0.4-0.2,0.6C30.7,18.5,30.7,18.1,30.7,17.8z
				 M25.3,15.4c1.6,0,3.3,0,4.9,0c0.5,0,0.5,0,0.5-0.5c0-0.3-0.1-0.4-0.4-0.4c-1.5,0-3,0-4.5,0c-0.5,0-0.5,0.1-0.7,0.8
				C25.1,15.4,25.2,15.4,25.3,15.4z"/>
			<path class="st0" d="M43.4,7.4c-0.4-0.2-0.7-0.1-1.1-0.1c-0.2,0-0.5,0-0.7,0c-0.3,0-0.4-0.1-0.4-0.4c0-0.3-0.2-0.4-0.4-0.5
				c-0.8-0.2-1.6-0.2-2.4-0.1c-0.6,0.1-1.3,0-1.9,0.1c-0.3,0-0.4-0.1-0.4-0.4c0-0.5,0-1,0-1.5c0-0.5,0-0.5-0.5-0.6
				c-0.1,0-0.1,0-0.2,0C34.2,3.8,33,3.8,31.8,4c-0.6,0.1-0.6,0.1-0.6,0.7c0,0.5,0,1,0,1.5c0,0.4,0,0.4,0.4,0.4
				c0.9-0.1,1.8-0.1,2.7-0.1c0.2,0,0.4,0,0.5,0.3c0,0.3,0.4,0.3,0.6,0.4c0.9,0.3,1.7,0.3,2.6,0.2c0.5-0.1,1-0.1,1.5-0.2
				c0.5-0.1,1,0,1.5,0.4c0.3,0.3,0.8,0.4,1.3,0.3C42.7,7.8,43,7.5,43.4,7.4z"/>
		</g>
		<path class="st0" d="M74.8,16c0,0.1,0.1,0.3,0.1,0.6c0,0.2,0,0.5,0.4,0.4c0.3-0.1,0.5,0.2,0.6,0.6c0,0.3,0,0.6,0,0.9
			c0,0.4,0.1,0.4,0.5,0.4c0.3,0,0.4,0,0.4-0.4c0-0.6,0-1.3,0-1.9c0-0.7-0.5-1.2-1.1-1.3C75.1,15.1,74.8,15.4,74.8,16z"/>
		<path class="st0" d="M86.6,17.4c0-0.3,0-0.8-0.1-1.2c-0.1-0.6-0.5-1-1.1-1c-0.4,0-0.6,0.2-0.6,0.6c0,0.2,0.1,0.4,0.1,0.7
			c0,0.3,0.1,0.5,0.4,0.5c0.2,0,0.3,0.1,0.3,0.4c0,0.4,0,0.8,0,1.2c0,0.4,0.1,0.4,0.5,0.4c0.3,0,0.5,0,0.5-0.4
			C86.6,18.1,86.6,17.8,86.6,17.4z"/>
		<path class="st0" d="M31.6,22.6c1,0,0.9,0.1,0.9-0.9c0-0.4-0.1-0.6-0.5-0.8c-0.4-0.2-0.8-0.2-1.2,0.1c-0.1,0.1-0.2,0.2-0.2,0.4
			c0,0.1,0,0.2,0,0.3C30.7,22.8,30.6,22.6,31.6,22.6z"/>
		<path class="st0" d="M66.6,22.6c1,0,0.9,0.1,0.9-0.9c0-0.4-0.1-0.6-0.5-0.8c-0.4-0.2-0.8-0.2-1.1,0.1c-0.1,0.1-0.2,0.2-0.2,0.4
			c0,0.3,0,0.5,0,0.8c0,0.3,0.1,0.4,0.4,0.4C66.3,22.6,66.4,22.6,66.6,22.6z"/>
		<path class="st0" d="M38.4,22.6c1,0,0.8,0.1,0.9-0.8c0-0.3,0-0.6-0.3-0.8c-0.4-0.2-0.7-0.3-1.1-0.1c-0.2,0.1-0.4,0.2-0.4,0.5
			c0,0.3,0,0.7,0,1c0,0.2,0.1,0.2,0.3,0.2C38,22.6,38.2,22.6,38.4,22.6z"/>
		<path class="st0" d="M33.9,22.6c1,0,0.8,0.1,0.8-0.8c0-0.3,0.1-0.6-0.3-0.7c-0.3-0.2-0.7-0.3-1.1-0.1C33.2,21,33,21.2,33,21.5
			c0,0.1,0,0.2,0,0.2C33,22.7,32.9,22.6,33.9,22.6z"/>
		<path class="st0" d="M29.4,22.6c1,0,0.9,0.1,0.9-0.9c0-0.6-0.5-1-1.1-0.9c-0.2,0-0.4,0.2-0.4,0.4c0,0.2-0.1,0.3-0.1,0.5
			C28.5,22.6,28.5,22.6,29.4,22.6z"/>
		<path class="st0" d="M55.7,22.6c0.9,0,0.8,0.1,0.8-0.9c0-0.6-0.3-0.9-0.9-0.9c-0.5,0-0.7,0.3-0.8,0.8c0,0.1,0,0.2,0,0.2
			C54.9,22.7,54.8,22.6,55.7,22.6z"/>
		<path class="st0" d="M51.5,22.6c0.1,0,0.1,0,0.2,0c0.6,0,0.6,0,0.6-0.6c0-0.1,0-0.2,0-0.4c0-0.6-0.6-1-1.1-0.8
			c-0.3,0.1-0.4,0.3-0.5,0.6c0,0.3,0,0.5,0,0.8c0,0.3,0.1,0.4,0.4,0.4C51.2,22.6,51.3,22.6,51.5,22.6z"/>
		<path class="st0" d="M43,22.6c0.9,0,0.8,0.1,0.8-1c0-0.6-0.5-1-1.1-0.8c-0.3,0.1-0.5,0.3-0.5,0.7c0,0.1,0,0.2,0,0.3
			C42.1,22.7,42,22.6,43,22.6z"/>
		<path class="st0" d="M64.2,22.6c0.9,0,0.7,0.1,0.8-1c0-0.6-0.6-1-1.2-0.8c-0.3,0.1-0.4,0.3-0.4,0.6c0,0.1,0,0.2,0,0.3
			C63.4,22.7,63.4,22.6,64.2,22.6z"/>
		<path class="st0" d="M81.9,22.6c1,0,0.8,0.1,0.9-0.8c0-0.3,0.1-0.5-0.2-0.7c-0.3-0.2-0.7-0.3-1.1-0.1c-0.2,0.1-0.3,0.2-0.3,0.4
			c-0.1,0.3-0.1,0.7-0.2,1c0,0.2,0.1,0.2,0.3,0.3C81.4,22.6,81.6,22.6,81.9,22.6z"/>
		<path class="st0" d="M45.1,22.6c0.9,0,0.9,0.2,0.9-0.9c0-0.4-0.2-0.6-0.7-0.8c-0.4-0.1-0.9,0-1.1,0.3c-0.1,0.1-0.1,1.2,0,1.3
			c0.1,0.1,0.2,0.1,0.3,0.1C44.7,22.6,44.9,22.6,45.1,22.6z"/>
		<path class="st0" d="M36.1,22.6c1,0,0.9,0.2,0.9-1c0-0.5-0.5-0.8-1.1-0.8c-0.5,0-0.7,0.3-0.7,0.8c0,0,0,0,0,0.1
			C35.2,22.7,35.1,22.6,36.1,22.6z"/>
		<path class="st0" d="M79.6,22.6c1,0,0.9,0.2,0.9-1c0-0.5-0.2-0.7-0.7-0.7c-0.5-0.1-0.8,0.1-0.9,0.6c0,0.1,0,0.2,0,0.2
			C78.7,22.6,78.7,22.6,79.6,22.6z"/>
		<path class="st0" d="M40.7,22.6c0.9,0,0.8,0.1,0.8-0.9c0-0.6-0.4-1-1-0.8c-0.3,0.1-0.5,0.3-0.6,0.7c0,0.1,0,0.2,0,0.3
			C39.9,22.7,39.8,22.6,40.7,22.6z"/>
		<path class="st0" d="M59.2,21.9c0,0.7-0.1,0.8,0.6,0.7c1.1,0,0.9,0.2,0.9-1c0-0.6-0.3-0.9-0.9-0.8c-0.4,0-0.7,0.3-0.7,0.7
			C59.2,21.7,59.2,21.8,59.2,21.9z"/>
		<path class="st0" d="M49.3,22.6c0.1,0,0.2,0,0.2,0c0.4,0,0.4,0,0.5-0.4c0-0.2,0-0.4,0-0.7c0-0.4-0.3-0.7-0.8-0.7
			c-0.4,0-0.8,0.2-0.8,0.6c0,0.1,0,0.2,0,0.3C48.4,22.7,48.3,22.6,49.3,22.6z"/>
		<path class="st0" d="M62.8,21.8c0-0.8-0.3-1.1-0.9-1c-0.4,0.1-0.6,0.3-0.6,0.7c0,1.2-0.1,1,1,1C62.9,22.6,62.7,22.6,62.8,21.8z"/>
		<path class="st0" d="M47.2,22.6c0.9,0,0.8,0.1,0.8-0.8c0-0.7-0.2-1-0.8-1c-0.5,0-0.8,0.3-0.8,0.8c0,0.1,0,0.2,0,0.2
			C46.4,22.7,46.3,22.6,47.2,22.6z"/>
		<path class="st0" d="M25.2,22.6c0.9,0,0.8,0.1,0.8-0.8c0-0.7-0.2-0.8-0.7-0.9c-0.5-0.1-0.8,0.2-0.9,0.7c0,0.1,0,0.2,0,0.3
			C24.5,22.7,24.3,22.6,25.2,22.6z"/>
		<path class="st0" d="M53.5,22.6c0.9,0,0.8,0,0.8-0.8c0-0.6-0.1-0.8-0.6-1c-0.5-0.1-0.9,0.2-1,0.7c0,0.1,0,0.2,0,0.2
			C52.7,22.7,52.6,22.6,53.5,22.6z"/>
		<path class="st0" d="M58,22.6c0.1,0,0.2,0,0.3,0c0.4,0,0.5,0,0.5-0.4c0-0.1,0-0.3,0-0.4c0-0.5-0.2-0.7-0.7-0.9
			c-0.6-0.2-0.9,0.1-0.9,0.7c0,0.2,0,0.4,0,0.6c0,0.5,0,0.5,0.5,0.5C57.8,22.6,57.9,22.6,58,22.6z"/>
		<path class="st0" d="M77.4,22.6c0.9,0,0.8,0.1,0.8-0.8c0-0.7-0.3-1-1-0.9c-0.4,0.1-0.6,0.2-0.6,0.7c0,0.1,0,0.2,0,0.2
			C76.6,22.7,76.5,22.6,77.4,22.6z"/>
		<path class="st0" d="M75.2,22.6c0.9,0,0.8,0,0.8-0.8c0-0.8-0.5-1.1-1.3-0.8c-0.2,0.1-0.4,0.3-0.3,0.5c0,0.1,0,0.2,0,0.2
			C74.4,22.7,74.3,22.6,75.2,22.6z"/>
		<path class="st0" d="M73,22.6c0.9,0,0.7,0.1,0.8-0.8c0-0.7-0.3-0.8-0.9-0.9c-0.5,0-0.7,0.2-0.7,0.7c0,0.1,0,0.2,0,0.2
			C72.2,22.7,72.1,22.6,73,22.6z"/>
		<path class="st0" d="M68.7,22.6c0.1,0,0.2,0,0.2,0c0.5,0,0.5,0,0.5-0.5c0-0.1,0-0.2,0-0.4c0-0.3,0-0.6-0.4-0.7
			c-0.4-0.1-0.7-0.2-1,0.1c-0.1,0.1-0.2,0.2-0.2,0.4c0,0.1,0,0.2,0,0.4C67.9,22.7,67.8,22.6,68.7,22.6z"/>
		<path class="st0" d="M27.3,22.6c0.8,0,0.7,0.1,0.7-0.8c0-0.8-0.4-1.1-1.2-0.8c-0.3,0.1-0.5,0.3-0.4,0.6c0,0.1,0,0.1,0,0.2
			C26.5,22.7,26.4,22.6,27.3,22.6z"/>
		<path class="st0" d="M70.7,22.6c0.1,0,0.2,0,0.2,0c0.5,0,0.5,0,0.5-0.6c0-0.1,0-0.2,0-0.2c0-0.7-0.5-1-1.2-0.8
			c-0.2,0.1-0.3,0.2-0.3,0.5c0,0.1,0,0.3,0,0.4C70,22.6,69.9,22.6,70.7,22.6z"/>
		<path class="st0" d="M2.5,21.7c0.2-0.3,0.1-0.7,0.1-1c-0.7,0.1-1.4,0.1-2.1,0c-0.2,0.3-0.2,0.7,0,1C1.2,21.7,1.8,21.7,2.5,21.7z"
			/>
		<path class="st0" d="M6.7,20.7c0.1,0.2,0.4,0.1,0.6,0.1c0.9,0,1.8,0,2.8,0c0.1,0,0.3,0,0.4,0c0.1,0,0.2,0.1,0.2,0.2
			c0,0.1,0,0.2-0.2,0.2c-0.1,0-0.3,0-0.4,0c-0.9,0-1.8,0-2.8,0c-0.2,0-0.4-0.1-0.6,0.1c1.3-0.1,2.7,0,4,0c0.2-0.2,0.2-0.5,0-0.7
			C9.4,20.8,8.1,20.8,6.7,20.7z"/>
		<path class="st0" d="M11.3,20.8c0.1,0.1,0.3,0.1,0.4,0.1c1.1,0,2.1,0,3.2,0c0.1,0,0.2,0,0.3-0.1C13.9,20.8,12.6,20.8,11.3,20.8z"
			/>
		<path class="st0" d="M15.7,20.7c0.1,0.1,0.2,0.1,0.3,0.1c1.1,0,2.1,0,3.2,0c0.1,0,0.2,0,0.3-0.1C18.2,20.7,17,20.8,15.7,20.7z"/>
		<path class="st0" d="M2.9,20.7c0.1,0.1,0.2,0.1,0.3,0.1c0.9,0,1.9,0,2.8,0c0.1,0,0.1-0.1,0.2-0.1c-0.9,0-1.8,0-2.6,0
			C3.4,20.8,3.2,20.7,2.9,20.7z"/>
		<path class="st0" d="M55.6,23.6c0.2,0,0.4,0,0.6,0c6,0,11.9,0,17.9,0c0.2,0,0.5,0,0.7-0.1c-1.3,0-2.6,0-3.9,0c-4.8,0-9.7,0-14.5,0
			C56.1,23.5,55.8,23.5,55.6,23.6z"/>
		<path class="st0" d="M88.5,23.8c0.4,0,0.8,0,1.1,0c11.1-0.1,22.3-0.2,33.4-0.3c0.4,0,0.8,0,1.2-0.1c-2.4,0-4.9,0-7.3,0.1
			c-9,0.1-18.1,0.2-27.1,0.2C89.4,23.8,89,23.7,88.5,23.8z"/>
		<path class="st0" d="M2.7,23.6c0.2,0,0.4,0,0.6,0c6,0,44.4,0,50.4,0c0.2,0,0.5,0,0.7-0.1c-1.3,0-35.1,0-36.4,0
			c-4.8,0-9.7,0-14.5,0C3.2,23.5,2.9,23.5,2.7,23.6z"/>
		<path class="st0" d="M0.5,22.1c-0.2,0.4-0.1,0.5,0.2,0.5c0.5,0,1,0,1.5,0c0.3,0,0.3,0,0.2-0.5C1.8,22.1,1.2,22.1,0.5,22.1z"/>
		<path class="st0" d="M15.3,21.7C15.3,21.7,15.2,21.7,15.3,21.7c-0.1,0.1-0.1,0.2,0,0.2C15.4,21.8,15.3,21.7,15.3,21.7z"/>
		<path class="st0" d="M22.6,21.2c0,0,0.1,0.1,0.1,0.1C22.7,21.3,22.6,21.3,22.6,21.2z"/>
		<g>
			<path class="st0" d="M47.6,16.5c-0.1-0.3,0.1-0.7-0.1-1c0-0.1-0.1-0.1-0.1,0c-0.2,0-0.3,0-0.5,0c0-0.1-0.1-0.1-0.2-0.1
				c0-0.1-0.1-0.2-0.1-0.3c-0.1,0-0.2,0-0.3,0c-0.1,0.4,0,0.8,0,1.2c0,0.3-0.1,0.4-0.4,0.4c-0.3,0-0.4-0.1-0.3-0.4
				c0-0.2,0-0.5,0-0.7c0-0.1-0.1-0.1-0.1,0c-0.1,0-0.3,0-0.4,0c0,0-0.1-0.1-0.1-0.1c0-0.1,0-0.2,0-0.2c0.3,0,0.6,0,1,0
				c0,0,0-0.1,0-0.1c-1.1,0-2.2,0-3.4,0c-0.1,0.4,0,0.9-0.1,1.3c0,0.1-0.1,0.2-0.2,0.2c-0.1,0-0.2-0.1-0.2-0.2c0-0.3,0-0.6,0-0.9
				c0-0.1,0-0.1-0.1,0c-0.1,0-0.3,0-0.4,0c0,0-0.1-0.1-0.1-0.1c0-0.1,0-0.2,0-0.2c0.2,0,0.5,0,0.7,0c0,0,0-0.1,0-0.1
				c-1.6,0-3.1,0-4.7,0c-0.1,0.4,0,0.8-0.1,1.2c0,0.3-0.1,0.4-0.4,0.4c-0.3,0-0.6,0-0.9,0c0,0-0.1-0.1-0.1-0.1c0-0.5,0-0.9,0-1.4
				c0.3,0,0.6,0,0.9,0c-0.3-0.2-0.6-0.1-0.9-0.1c0-0.6,0-0.6,0.5-0.6c0,0,0.1,0,0.1,0c6.5,0,13,0,19.5,0c0.1,0,0.3,0,0.4,0
				c0.2,0,0.3,0.1,0.3,0.3c0,0.6,0,1.1,0,1.7c0,0.1-0.1,0.2-0.2,0.2c-0.2,0-0.2-0.1-0.2-0.2c0-0.2,0-0.4,0-0.7c0-0.3,0-0.4-0.4-0.4
				c-0.2,0-0.3,0-0.4-0.2c-0.6,0-1.3-0.1-1.9,0c0,0.4,0,0.8,0,1.3c0,0.2-0.1,0.3-0.3,0.3c-0.2,0-0.2-0.1-0.2-0.2c0-0.3,0-0.6,0-0.8
				c0-0.1-0.1-0.1-0.1,0c-0.2,0-0.3,0-0.5,0c0-0.1-0.1-0.1-0.2-0.1c0-0.1,0-0.2,0-0.3C52,15,51.8,15,51.5,15.1c-0.6,0-1.2-0.1-1.7,0
				c0,0.4,0,0.8,0,1.2c0,0.2,0,0.3-0.2,0.3c-0.2,0-0.2-0.2-0.2-0.3c0-0.1,0-0.3,0-0.4c0-0.2,0-0.4-0.1-0.6c0.1-0.1,0.2-0.1,0.3-0.2
				c-0.9,0-1.7,0-2.6,0c0.4,0.1,0.8,0.1,1.1,0.1c0,0.4,0,0.9,0,1.3C47.8,16.5,47.7,16.5,47.6,16.5z M53.2,15.1
				c-0.2-0.1-0.4-0.1-0.6,0C52.8,15.1,53,15.1,53.2,15.1z"/>
			<path class="st0" d="M61.1,17.3c0.2-0.3,0.1-0.6,0.1-0.8c0-0.2,0-0.4,0.3-0.4c0.3,0,0.3,0.2,0.3,0.4c0,0.5,0,1,0,1.5
				c0,0.1,0,0.3,0,0.4c0,0.2,0,0.3,0.2,0.4c0.2,0,0.2-0.2,0.2-0.3c0-0.5,0-1,0-1.5c0-0.3-0.2-0.7,0.4-0.9c0.2-0.1,0.2-0.6,0-0.8
				c-0.2-0.2-0.2-0.5-0.2-0.7c0-0.5,0-1.1,0-1.6c0-0.1,0-0.2,0-0.3c0-0.2,0-0.4-0.3-0.4c-0.2,0-0.2,0.2-0.2,0.4c0,0.5,0,0.9,0,1.4
				c0,0.2,0,0.5,0,0.7c0,0.4,0,0.4-0.4,0.4c-1,0-1.9,0-2.9,0c-0.4,0-1-0.2-1.2,0.1c-0.3,0.3-0.1,0.9-0.1,1.3c0,0.6,0,1.2,0,1.8
				c0,0.2,0,0.4,0.3,0.4c0.3,0,0.4-0.1,0.4-0.4c0-0.1,0-0.3,0-0.4c0-0.2,0.1-0.3,0.3-0.3c0.2,0,0.3,0.1,0.3,0.3c0,0.1,0,0.3,0,0.4
				c0,0.2,0,0.4,0.3,0.4c0.2,0,0.2-0.2,0.2-0.4c0-0.5,0-1,0-1.5c0-0.1,0-0.3,0-0.4c0-0.2,0.1-0.3,0.3-0.3c0.2,0,0.3,0.1,0.3,0.3
				c0,0.2,0,0.5,0,0.7c0,0.2,0.1,0.3,0.3,0.3c0.2,0,0.2-0.1,0.2-0.2c0-0.3,0-0.5,0-0.8c0-0.2,0.1-0.3,0.3-0.3c0.2,0,0.3,0,0.3,0.3
				C61,16.6,60.9,17,61.1,17.3z"/>
			<path class="st0" d="M66.8,14.1c0.2-0.4,0.2-0.8,0.2-1.2c0-0.3-0.1-0.5-0.5-0.5c-1.1-0.2-2.2-0.1-3.3,0c-0.2,0-0.3,0.1-0.3,0.4
				c0,0.3,0,0.6,0,0.9c0,0.3,0.1,0.4,0.4,0.4c0.7,0,1.3,0,2,0c0.5,0,0.5,0,0.6,0.5c0,0.3,0.2,0.4,0.4,0.5c1.1,0.4,2.2,0.2,3.3,0.1
				c0.1,0,0.3-0.1,0.4-0.1c0.2,0,0.3,0,0.4,0.2c0.2,0.6,0.6,0.7,1.2,0.4c0.3-0.1,0.6-0.3,0.9-0.4c0-0.2-0.2-0.1-0.3-0.1
				c-0.3,0-0.6,0-0.9,0c-0.3,0-0.5,0-0.7-0.3c-0.3-0.4-0.9-0.5-1.4-0.6c-0.6,0-1.1,0-1.7,0C67.2,14.2,67.1,14.2,66.8,14.1z"/>
			<path class="st0" d="M46.6,13.5c-3.5,0-6.9,0-10.4,0c-0.2,0-0.4,0-0.6,0c-0.2,0-0.2,0.1-0.2,0.3c0,0.1,0.1,0.2,0.2,0.2
				c0.1,0,0.3,0,0.4,0c7,0,14,0,21,0c0.1,0,0.3,0,0.4,0c0.1,0,0.2-0.1,0.2-0.2c0-0.1,0-0.2-0.2-0.2c-0.2,0-0.4,0-0.5,0
				C53.5,13.5,50,13.5,46.6,13.5z"/>
			<path class="st0" d="M41.3,15.2c0.2,0,0.5,0,0.7,0c0,0,0-0.1,0-0.1c-1.6,0-3.1,0-4.7,0c0.2,0,0.4,0.2,0.3,0.4c0,0.3,0,0.6,0,0.9
				c0,0.2,0.1,0.3,0.3,0.3c0,0,0,0,0.1,0c1,0,0.8,0,0.8-0.7c0-0.1,0-0.2,0-0.3c0-0.5,0-0.5,0.5-0.3c0.1,0.1,0.3,0.1,0.4,0.1
				c0.1-0.3,0.3-0.2,0.5-0.2c0.2,0,0.2,0.2,0.2,0.4c0,0.2,0,0.4,0,0.7c0,0.2-0.1,0.3-0.3,0.3c0.2,0.2,0.4,0.2,0.4-0.1
				c0-0.2,0-0.4,0-0.7C40.6,15.1,40.7,15.1,41.3,15.2z"/>
			<path class="st0" d="M35.9,17.9c0,0.8-0.1,0.8,0.8,0.8c0.6,0,0.6,0,0.6-0.6c0,0,0,0,0-0.1c0-1,0.2-0.9-0.9-0.9
				c-0.3,0-0.4,0.1-0.4,0.4C35.9,17.7,35.9,17.8,35.9,17.9z"/>
			<path class="st0" d="M37.7,17.9c0,0.1,0,0.1,0,0.2c0,0.6,0,0.6,0.6,0.6c0.5,0,0.5,0,0.6-0.5c0-0.1,0-0.2,0-0.4
				c0-0.7-0.3-0.9-1-0.7c-0.2,0-0.2,0.2-0.2,0.3C37.7,17.5,37.7,17.7,37.7,17.9L37.7,17.9z"/>
			<path class="st0" d="M43.1,17.2c0.1,0.2,0.4,0.1,0.6,0.1c0.2,0,0.3,0.1,0.3,0.3c0,0.2,0,0.5,0,0.7c0,0.2,0,0.3,0.2,0.3
				c0.2,0,0.3-0.1,0.3-0.2c0-0.4,0-0.7,0-1.1c0-0.1,0-0.2-0.1-0.2C44.1,17,43.3,17.1,43.1,17.2z"/>
			<path class="st0" d="M39.3,17.2c0.1,0.2,0.3,0.1,0.4,0.2c0.4,0,0.4,0,0.4,0.5c0,0.2,0,0.4,0,0.6c0,0.1,0.1,0.2,0.2,0.2
				c0.2,0,0.3-0.1,0.3-0.2c0-0.4,0-0.8,0-1.2c0-0.1-0.1-0.2-0.2-0.2C40.3,17,39.5,17.1,39.3,17.2z"/>
			<path class="st0" d="M53.6,17.7c0-0.7,0.1-0.7-0.8-0.7c-0.2,0-0.5-0.1-0.5,0.1c0,0.3,0.3,0.1,0.5,0.2c0.2,0,0.3,0.1,0.3,0.3
				c0,0.2,0,0.5,0,0.7c0,0.2,0.1,0.3,0.2,0.3c0.2,0,0.2-0.1,0.2-0.3C53.6,18.2,53.6,18,53.6,17.7z"/>
			<path class="st0" d="M49.8,17.7c0-0.7,0.1-0.7-0.8-0.7c-0.2,0-0.5-0.1-0.5,0.1c0,0.3,0.3,0.1,0.5,0.2c0.2,0,0.3,0.1,0.3,0.3
				c0,0.2,0,0.5,0,0.7c0,0.2,0.1,0.3,0.2,0.3c0.2,0,0.2-0.1,0.2-0.3C49.8,18.2,49.8,18,49.8,17.7z"/>
			<path class="st0" d="M44.9,17.2c0.2,0.3,0.4,0.2,0.6,0.2c0.2,0,0.3,0.1,0.3,0.3c0,0.3,0,0.5,0,0.8c0,0.1,0.1,0.2,0.2,0.2
				c0.2,0,0.3-0.1,0.3-0.3c0-0.2,0-0.3,0-0.5c0-0.3,0.2-0.7-0.1-0.8C45.7,17,45.3,17,44.9,17.2z"/>
			<path class="st0" d="M54,17.2C54.1,17.2,54.1,17.3,54,17.2c0.6,0.3,0.6,0.3,0.7,1c0,0.2-0.1,0.5,0.2,0.5c0.4,0,0.2-0.3,0.2-0.5
				c0-0.1,0-0.3,0-0.4c0-0.2,0.1-0.5-0.1-0.6C54.7,17,54.4,17,54,17.2z"/>
			<path class="st0" d="M41.3,17.2c0.7,0.2,0.7,0.2,0.7,0.9c0,0.2-0.1,0.6,0.3,0.6c0.3,0,0.2-0.3,0.2-0.5c0-0.1,0-0.3,0-0.4
				c0-0.6,0-0.7-0.7-0.6C41.6,17.1,41.4,17,41.3,17.2z"/>
			<path class="st0" d="M46.7,17.2c0,0.1,0.1,0.2,0.1,0.2c0.7,0.1,0.7,0.1,0.7,0.8c0,0.2-0.1,0.5,0.2,0.5c0.4,0,0.2-0.3,0.2-0.5
				c0-1.2,0.2-1-1.1-1C46.8,17.1,46.8,17.1,46.7,17.2z"/>
			<path class="st0" d="M55.6,17.2c0.1,0.2,0.2,0.1,0.3,0.1c0.6,0,0.6,0,0.6,0.6c0,0.2-0.1,0.4,0.1,0.6c0.2,0,0.2-0.1,0.2-0.2
				c0-0.1,0-0.3,0-0.4C56.8,17,56.6,16.9,55.6,17.2z"/>
			<path class="st0" d="M50.3,17.2c0.3,0.2,0.5,0.1,0.7,0.1c0.3,0,0.4,0.1,0.4,0.4c0,0.2,0,0.5,0,0.7c0,0.1,0.1,0.2,0.2,0.2
				c0.2,0,0.2-0.1,0.2-0.3c0-0.1,0-0.1,0-0.2c0-0.4,0.1-0.7-0.1-1.1C51.6,17.1,50.7,17.1,50.3,17.2z"/>
			<path class="st0" d="M43.9,15.5c0.1,0.3,0,0.7,0.1,1c0.3,0,0.2-0.3,0.4-0.4c0-0.2,0-0.4,0-0.6c-0.1-0.3-0.3-0.4-0.7-0.4
				c-0.2,0-0.4,0-0.7,0c0,0.1,0,0.2,0,0.2c0.1,0,0.1,0,0.2,0.1c0.2,0,0.3,0,0.5,0C43.8,15.4,43.9,15.5,43.9,15.5z"/>
			<path class="st0" d="M54.7,15.4c0,0.3,0,0.6,0,0.9c0,0.2,0,0.4,0.3,0.4c0.2,0,0.2-0.2,0.2-0.4c0-0.4,0-0.7,0-1.1
				C55,15.2,54.8,15.2,54.7,15.4z"/>
			<path class="st0" d="M51.8,16.5c0-0.5,0-0.9,0-1.4c-0.5,0-1,0-1.5,0c0,0.1,0,0.2,0,0.2c0,0,0.1,0.1,0.1,0.1c0.3,0,0.7,0,1,0
				c0.1-0.1,0.1,0,0.1,0c0.2,0.3,0,0.7,0.1,1C51.7,16.5,51.7,16.5,51.8,16.5z"/>
			<path class="st0" d="M40.2,16.5c0.2,0,0.3-0.1,0.3-0.3c0-0.2,0-0.4,0-0.7c0-0.2,0-0.4-0.2-0.4c-0.2,0-0.5-0.1-0.5,0.2l0,0
				c0.1,0,0.2,0,0.3,0.1C40.2,15.8,40,16.2,40.2,16.5z"/>
			<path class="st0" d="M43.1,15.2c0.2,0,0.4,0,0.7,0c0.3,0,0.5,0.1,0.7,0.4c0.1-0.2,0.1-0.5,0.5-0.4c0.3,0,0.6,0,1,0
				c0,0,0-0.1,0-0.1c-1.1,0-2.2,0-3.4,0C42.7,15.1,42.9,15.1,43.1,15.2z"/>
			<path class="st0" d="M49.2,15.3c0.1-0.1,0.2-0.1,0.3-0.2c-0.9,0-1.7,0-2.6,0c0.4,0.1,0.8,0.1,1.1,0.1c0.2-0.1,0.4,0,0.6,0.1
				c0-0.1,0.1-0.1,0.1,0C48.8,15.3,49,15.3,49.2,15.3z"/>
			<path class="st0" d="M54.7,15.4c0.1-0.2,0.2-0.2,0.4-0.2c0.1,0,0.3-0.1,0.4-0.1c-0.6,0-1.3-0.1-1.9,0c0.2,0,0.3,0,0.5,0.1
				c0,0,0.1,0.1,0.1,0.1C54.4,15.3,54.6,15.3,54.7,15.4z"/>
			<path class="st0" d="M50.3,15.2c0.5,0,1,0,1.5,0c0.2-0.1,0.3-0.1,0.5,0C52,15,51.8,15,51.5,15.1c-0.6,0-1.2-0.1-1.7,0
				C50,15.1,50.1,15.1,50.3,15.2z"/>
			<path class="st0" d="M44.4,16.2c-0.2,0.1-0.1,0.4-0.4,0.4c0.1,0.2,0.3,0.2,0.4,0.1C44.5,16.5,44.5,16.3,44.4,16.2z"/>
			<path class="st0" d="M35.9,15.2c0.3,0,0.6,0,0.9,0c-0.3-0.2-0.6-0.1-0.9-0.1C35.9,15.1,35.9,15.1,35.9,15.2z"/>
			<path class="st0" d="M46.6,15.1c-0.1,0-0.2,0-0.3,0C46.4,15.1,46.5,15.1,46.6,15.1z"/>
			<path class="st0" d="M48,16.5c-0.1,0-0.2,0-0.4,0C47.7,16.7,47.8,16.7,48,16.5z"/>
			<path class="st0" d="M40.1,15.5c-0.1-0.1-0.2-0.1-0.3-0.1C39.8,15.5,40,15.5,40.1,15.5z"/>
			<path class="st0" d="M52.5,15.5c0-0.1-0.1-0.1-0.2-0.1C52.3,15.5,52.4,15.5,52.5,15.5z"/>
			<path class="st0" d="M43.3,15.5c0-0.1-0.1-0.1-0.2-0.1C43.1,15.5,43.2,15.5,43.3,15.5z"/>
			<path class="st0" d="M46.8,15.5c0-0.1-0.1-0.1-0.2-0.1C46.7,15.5,46.8,15.5,46.8,15.5z"/>
			<path class="st0" d="M36,16.6c0,0-0.1-0.1-0.1-0.1C35.9,16.6,36,16.6,36,16.6z"/>
			<path class="st0" d="M53.1,15.5c0-0.1-0.1-0.1-0.1,0C53,15.5,53.1,15.5,53.1,15.5z"/>
			<path class="st0" d="M51.5,15.5c0-0.1-0.1-0.1-0.1,0C51.4,15.5,51.5,15.5,51.5,15.5z"/>
			<path class="st0" d="M50.4,15.5c0,0-0.1-0.1-0.1-0.1C50.3,15.5,50.3,15.5,50.4,15.5z"/>
			<path class="st0" d="M47.5,15.5c0-0.1-0.1-0.1-0.1,0L47.5,15.5L47.5,15.5z"/>
			<path class="st0" d="M45.5,15.5c0-0.1-0.1-0.1-0.1,0C45.4,15.5,45.5,15.5,45.5,15.5z"/>
			<path class="st0" d="M48.7,15.3c0-0.1-0.1-0.1-0.1,0L48.7,15.3L48.7,15.3z"/>
			<path class="st0" d="M45,15.5c0,0-0.1-0.1-0.1-0.1C44.9,15.5,44.9,15.5,45,15.5z"/>
			<path class="st0" d="M54.2,15.3c0,0-0.1-0.1-0.1-0.1C54.1,15.3,54.1,15.3,54.2,15.3z"/>
			<path class="st0" d="M43.9,15.5c0-0.1-0.1-0.1-0.1,0C43.8,15.5,43.9,15.5,43.9,15.5z"/>
			<path class="st0" d="M41.9,15.6c0-0.1,0-0.1-0.1,0C41.9,15.5,41.9,15.5,41.9,15.6z"/>
			<path class="st0" d="M41.4,15.5c0,0-0.1-0.1-0.1-0.1C41.3,15.5,41.4,15.5,41.4,15.5z"/>
			<path class="st0" d="M51.8,16.5c0,0-0.1,0-0.1,0C51.6,16.6,51.7,16.6,51.8,16.5C51.7,16.6,51.7,16.5,51.8,16.5z"/>
			<path class="st0" d="M52.6,15.1c0.2,0,0.4,0,0.6,0C53,15,52.8,15,52.6,15.1z"/>
		</g>
		<g>
			<path class="st0" d="M124.5,19.6c0-0.1,0-0.2,0-0.2c0,0-0.1-0.1-0.1-0.1c-0.2,0-0.5,0-0.7,0c-35.1,0-0.2,0-35.2,0
				c-0.1,0-0.2,0-0.3,0c-0.5,0-0.5,0-0.5,0.6c0.3,0,0.6-0.1,0.8,0.1c0,0.1,0,0.2,0,0.4c0.3,0,0.5,0,0.8,0c34.4,0-1,0,33.4,0
				c0.1,0,0.3,0,0.4,0c0.3,0,0.4,0.1,0.4,0.4c0,0.5,0,0.9,0,1.4c0,0.2,0,0.3,0.2,0.4c0.1-0.3,0-0.6,0.1-1c0-0.6,0-1.3,0.1-1.9
				C124.1,19.5,124.3,19.6,124.5,19.6z"/>
			<path class="st0" d="M88.8,20.9c0-0.5,0-0.5,0.5-0.5c0.2,0,0.3,0,0.5,0c34.2,0-1.5,0,32.7,0c1.1,0,1-0.1,1,1c0,0.3,0,0.6,0,0.9
				c0,0.3,0.1,0.4,0.4,0.2c-0.2,0-0.2-0.2-0.2-0.4c0-0.5,0-0.9,0-1.4c0-0.3-0.1-0.5-0.4-0.4c-0.1,0-0.3,0-0.4,0c-34.4,0,1,0-33.4,0
				c-0.3,0-0.5,0-0.8,0"/>
			<path class="st0" d="M97.2,3.8c0.5-0.1,1-0.2,1.5-0.2c-0.4-0.3-1-0.1-1.4-0.4c0.4-0.3,0.9-0.2,1.4-0.3c-0.3-0.2-0.6,0-0.9-0.3
				c0.3-0.2,0.7-0.2,1-0.4c-0.4-0.1-0.7-0.1-1-0.2c0,0,0-0.1,0-0.1c0.3-0.1,0.6-0.2,1-0.3c-0.5-0.1-1,0.1-1.5-0.2
				c0.6-0.1,1.1-0.2,1.6-0.2c-0.2-0.3-0.6-0.1-0.8-0.4c0.9,0,1.8,0,2.7,0c0.2,0,0.3,0.1,0.3,0.3c0,0.9,0,1.8,0,2.8
				c0,0.2-0.1,0.3-0.3,0.3c-0.4,0-0.4,0.2-0.4,0.5c0,0.1,0,0.2,0,0.3c0,4.4,0,8.9,0,13.3c0,0.8,0.1,0.8,0.9,0.7
				c0.2,0,0.3-0.1,0.3-0.3c0-0.1,0-0.2,0-0.4c0-5.8,0-11.5,0-17.2c0-0.1,0-0.2,0-0.3c0-0.3-0.1-0.4-0.4-0.4c-1.2,0-2.5,0-3.7,0
				c-0.3,0-0.4,0.1-0.4,0.4c0,0.1,0,0.2,0,0.4c0,5.7,0,11.4,0,17.1c0,0.8-0.1,0.7,0.7,0.7c0.5,0,0.9,0,1.4,0c0.3,0,0.5-0.1,0.4-0.4
				c0-0.1,0-0.2,0-0.4c0-4.4,0-8.8,0-13.3c0-0.1,0-0.2,0-0.4c0-0.3-0.1-0.4-0.4-0.4c-0.6,0-1.2,0-1.8,0C97.2,3.9,97.2,3.9,97.2,3.8z
				"/>
			<path class="st0" d="M104.5,17.4c0-0.3,0-0.8-0.1-1.2c-0.1-0.6-0.5-1-1.1-1c-0.4,0-0.6,0.2-0.6,0.6c0,0.2,0.1,0.4,0.1,0.7
				c0,0.3,0.1,0.5,0.4,0.5c0.2,0,0.3,0.1,0.3,0.4c0,0.4,0,0.8,0,1.2c0,0.4,0.1,0.4,0.5,0.4c0.3,0,0.5,0,0.5-0.4
				C104.5,18.1,104.5,17.8,104.5,17.4z"/>
			<path class="st0" d="M109.3,15.9c0,0.1,0.1,0.3,0.1,0.6c0,0.2,0,0.5,0.4,0.4c0.3-0.1,0.5,0.2,0.6,0.6c0,0.3,0,0.6,0,0.9
				c0,0.4,0.1,0.4,0.5,0.4c0.3,0,0.4,0,0.4-0.4c0-0.6,0-1.3,0-1.9c0-0.7-0.5-1.2-1.1-1.3C109.6,15.1,109.3,15.4,109.3,15.9z"/>
			<path class="st0" d="M116.5,17.4c0-0.3,0-0.8-0.1-1.2c-0.1-0.6-0.5-1-1.1-1c-0.4,0-0.6,0.2-0.6,0.6c0,0.2,0.1,0.4,0.1,0.7
				c0,0.3,0.1,0.5,0.4,0.5c0.2,0,0.3,0.1,0.3,0.4c0,0.4,0,0.8,0,1.2c0,0.4,0.1,0.4,0.5,0.4c0.3,0,0.5,0,0.5-0.4
				C116.5,18.1,116.5,17.8,116.5,17.4z"/>
			<path class="st0" d="M98.6,22.6c1,0,0.9,0.1,0.9-0.8c0-0.7-0.4-1-1-0.9c-0.6,0.1-0.8,0.2-0.8,0.8C97.7,22.7,97.6,22.6,98.6,22.6
				C98.6,22.6,98.6,22.6,98.6,22.6z"/>
			<path class="st0" d="M100.8,22.6c1,0,0.9,0.1,0.9-0.9c0-0.5-0.1-0.7-0.6-0.8c-0.3-0.1-0.6,0-0.8,0.1c-0.2,0.1-0.4,0.2-0.4,0.5
				c0,0.1,0,0.1,0,0.2C99.9,22.7,99.8,22.6,100.8,22.6z"/>
			<path class="st0" d="M107.3,22.6c1,0,0.9,0.1,0.9-0.9c0-0.5-0.1-0.6-0.5-0.8c-0.4-0.1-1.1,0-1.3,0.2c-0.1,0.1-0.1,0.2-0.1,0.3
				c0,0.2,0,0.5,0,0.7c0,0.3,0.1,0.4,0.4,0.4C107,22.6,107.2,22.6,107.3,22.6z"/>
			<path class="st0" d="M105.2,22.6c0.9,0,0.8,0.1,0.8-0.8c0-0.8-0.6-1.2-1.3-0.8c-0.2,0.1-0.3,0.2-0.3,0.4c0,0.1,0,0.2,0,0.3
				C104.4,22.7,104.3,22.6,105.2,22.6z"/>
			<path class="st0" d="M108.6,21.8c0,0.8-0.1,0.8,0.7,0.8c1,0,0.9,0.2,0.9-0.9c0-0.3-0.1-0.6-0.4-0.7c-0.4-0.1-0.7-0.1-1,0.1
				C108.5,21.3,108.7,21.6,108.6,21.8z"/>
			<path class="st0" d="M116.1,22.6c1,0,0.8,0.1,0.9-0.8c0-0.3,0.1-0.5-0.2-0.7c-0.3-0.2-0.7-0.2-1-0.1c-0.2,0.1-0.3,0.2-0.3,0.4
				c0,0.1,0,0.2,0,0.2C115.1,22.8,115.1,22.6,116.1,22.6z"/>
			<path class="st0" d="M103.1,22.6c1,0,0.8,0.1,0.8-0.9c0-0.6-0.2-0.8-0.8-0.8c-0.7,0-1.1,0.1-1,1c0,0.1,0,0.2,0,0.3
				c0,0.3,0.1,0.4,0.4,0.4C102.7,22.5,102.9,22.6,103.1,22.6z"/>
			<path class="st0" d="M120,22.6c0.1,0,0.2,0,0.2,0c0.5,0,0.5,0,0.5-0.6c0-0.2,0-0.3,0-0.5c0-0.5-0.3-0.7-0.7-0.7
				c-0.6,0-0.9,0.3-0.9,0.9C119.2,22.7,119.1,22.6,120,22.6z"/>
			<path class="st0" d="M114,22.6c0.9,0,0.7,0.1,0.8-0.8c0-0.6-0.3-0.9-0.9-0.9c-0.4,0-0.7,0.2-0.7,0.7c0,0.1,0,0.2,0,0.2
				C113.2,22.7,113,22.6,114,22.6z"/>
			<path class="st0" d="M118.1,22.6c1,0,0.9,0.2,0.9-0.9c0-0.5-0.1-0.6-0.6-0.7c-0.2,0-0.4,0-0.5,0c-0.5,0.1-0.6,0.2-0.6,0.7
				C117.2,22.7,117.1,22.5,118.1,22.6z"/>
			<path class="st0" d="M122,22.6c0.8,0,0.7,0.1,0.7-0.8c0,0,0,0,0-0.1c0-0.8-0.5-1.1-1.2-0.7c-0.2,0.1-0.3,0.2-0.3,0.5
				c0,0.1,0,0.2,0,0.3C121.2,22.6,121.2,22.5,122,22.6z"/>
			<path class="st0" d="M111.7,22.6c0.8,0,0.8,0.1,0.8-0.8c0,0,0,0,0-0.1c0-0.3,0.1-0.6-0.3-0.7c-0.4-0.2-0.7-0.1-1.1,0.1
				c-0.1,0.1-0.2,0.2-0.2,0.4c0,0.1,0,0.2,0,0.4C110.9,22.6,110.9,22.5,111.7,22.6z"/>
			<path class="st0" d="M96.5,22.5c0.8,0,0.7,0.1,0.7-0.8c0-0.7-0.5-1.1-1.2-0.8c-0.2,0.1-0.3,0.1-0.3,0.3c0,0.4,0,0.7,0,1.1
				c0,0.1,0.1,0.2,0.2,0.2C96.1,22.6,96.3,22.5,96.5,22.5z"/>
			<path class="st0" d="M124.5,19.6c-0.2,0-0.4-0.1-0.6,0.1C124.2,19.6,124.4,19.8,124.5,19.6z"/>
			<path class="st0" d="M124.4,19.2C124.5,19.3,124.5,19.3,124.4,19.2C124.6,19.3,124.5,19.2,124.4,19.2z"/>
		</g>
	</g>
</g>
<g>
	<path class="st1" d="M9.1,39.7l-0.4-1.5c0,0-0.1-0.1-0.1-0.1H4.7c0,0-0.1,0-0.1,0.1l-0.4,1.5c0,0.2-0.1,0.2-0.3,0.2H0.7
		c-0.2,0-0.3-0.1-0.2-0.3L4.4,27c0-0.2,0.2-0.2,0.3-0.2h3.9c0.2,0,0.3,0.1,0.3,0.2l3.9,12.6c0,0,0,0.1,0,0.1c0,0.1-0.1,0.2-0.3,0.2
		H9.5C9.3,39.9,9.2,39.9,9.1,39.7z M5.5,35.4h2.3c0.1,0,0.1,0,0.1-0.1l-1.2-4.2c0,0,0-0.1-0.1-0.1c0,0,0,0-0.1,0.1l-1.2,4.2
		C5.4,35.4,5.4,35.4,5.5,35.4z"/>
	<path class="st1" d="M20.6,26.9c0,0,0.1-0.1,0.2-0.1h2.9c0.1,0,0.2,0,0.2,0.1s0.1,0.1,0.1,0.2v12.6c0,0.1,0,0.2-0.1,0.2
		s-0.1,0.1-0.2,0.1H21c-0.1,0-0.3-0.1-0.3-0.2l-3.8-6.4c0,0,0-0.1-0.1,0c0,0,0,0,0,0.1l0,6.3c0,0.1,0,0.2-0.1,0.2
		c0,0-0.1,0.1-0.2,0.1h-2.9c-0.1,0-0.2,0-0.2-0.1s-0.1-0.1-0.1-0.2V27.1c0-0.1,0-0.2,0.1-0.2s0.1-0.1,0.2-0.1h2.8
		c0.1,0,0.3,0.1,0.3,0.2l3.8,6.4c0,0,0,0.1,0.1,0c0,0,0,0,0-0.1l0-6.3C20.6,27,20.6,26.9,20.6,26.9z"/>
	<path class="st1" d="M24.8,39.9c0,0-0.1-0.1-0.1-0.2V27.1c0-0.1,0-0.2,0.1-0.2s0.1-0.1,0.2-0.1H28c0.1,0,0.2,0,0.2,0.1
		c0,0,0.1,0.1,0.1,0.2v12.6c0,0.1,0,0.2-0.1,0.2c0,0-0.1,0.1-0.2,0.1H25C25,39.9,24.9,39.9,24.8,39.9z"/>
	<path class="st1" d="M37.6,26.8h2.9c0.1,0,0.2,0,0.2,0.1s0.1,0.1,0.1,0.2v12.6c0,0.1,0,0.2-0.1,0.2s-0.1,0.1-0.2,0.1h-2.9
		c-0.1,0-0.2,0-0.2-0.1c0,0-0.1-0.1-0.1-0.2v-6.8c0,0,0-0.1,0-0.1c0,0,0,0-0.1,0l-1.3,2.1c-0.1,0.1-0.2,0.2-0.3,0.2h-1.4
		c-0.1,0-0.3-0.1-0.3-0.2l-1.3-2.1c0,0,0-0.1-0.1,0c0,0,0,0,0,0.1v6.8c0,0.1,0,0.2-0.1,0.2c0,0-0.1,0.1-0.2,0.1h-2.9
		c-0.1,0-0.2,0-0.2-0.1S29,39.7,29,39.7V27.1c0-0.1,0-0.2,0.1-0.2s0.1-0.1,0.2-0.1h2.9c0.1,0,0.3,0.1,0.3,0.2l2.3,3.8
		c0,0.1,0.1,0.1,0.1,0l2.3-3.8C37.3,26.8,37.5,26.8,37.6,26.8z"/>
	<path class="st1" d="M49.9,39.7l-0.4-1.5c0,0-0.1-0.1-0.1-0.1h-3.9c0,0-0.1,0-0.1,0.1l-0.4,1.5c0,0.2-0.1,0.2-0.3,0.2h-3.2
		c-0.2,0-0.3-0.1-0.2-0.3L45.1,27c0-0.2,0.2-0.2,0.3-0.2h3.9c0.2,0,0.3,0.1,0.3,0.2l3.9,12.6c0,0,0,0.1,0,0.1c0,0.1-0.1,0.2-0.3,0.2
		h-3.2C50,39.9,49.9,39.9,49.9,39.7z M46.2,35.4h2.3c0.1,0,0.1,0,0.1-0.1l-1.2-4.2c0,0,0-0.1-0.1-0.1c0,0,0,0-0.1,0.1l-1.2,4.2
		C46.1,35.4,46.2,35.4,46.2,35.4z"/>
	<path class="st1" d="M62.1,26.9c0,0,0.1,0.1,0.1,0.2v2.5c0,0.1,0,0.2-0.1,0.2c0,0.1-0.1,0.1-0.2,0.1h-3.1c-0.1,0-0.1,0-0.1,0.1v9.7
		c0,0.1,0,0.2-0.1,0.2s-0.1,0.1-0.2,0.1h-2.9c-0.1,0-0.2,0-0.2-0.1c0,0-0.1-0.1-0.1-0.2v-9.7c0-0.1,0-0.1-0.1-0.1h-3
		c-0.1,0-0.2,0-0.2-0.1c0,0-0.1-0.1-0.1-0.2v-2.5c0-0.1,0-0.2,0.1-0.2c0,0,0.1-0.1,0.2-0.1h9.8C62,26.8,62,26.8,62.1,26.9z"/>
	<path class="st1" d="M62.5,39.9c0,0-0.1-0.1-0.1-0.2V27.1c0-0.1,0-0.2,0.1-0.2s0.1-0.1,0.2-0.1h2.9c0.1,0,0.2,0,0.2,0.1
		c0,0,0.1,0.1,0.1,0.2v12.6c0,0.1,0,0.2-0.1,0.2c0,0-0.1,0.1-0.2,0.1h-2.9C62.7,39.9,62.6,39.9,62.5,39.9z"/>
	<path class="st1" d="M69,39.5c-0.8-0.4-1.4-1-1.8-1.8c-0.4-0.8-0.7-1.6-0.7-2.6v-3.5c0-1,0.2-1.8,0.7-2.6s1-1.3,1.8-1.7
		c0.8-0.4,1.7-0.6,2.7-0.6c1,0,2,0.2,2.7,0.6c0.8,0.4,1.4,1,1.8,1.7c0.4,0.8,0.7,1.6,0.7,2.6v3.5c0,1-0.2,1.9-0.7,2.6
		c-0.4,0.8-1,1.3-1.8,1.8c-0.8,0.4-1.7,0.6-2.7,0.6C70.7,40.2,69.8,40,69,39.5z M73,36.6c0.3-0.3,0.5-0.8,0.5-1.4v-3.7
		c0-0.6-0.2-1-0.5-1.4c-0.3-0.3-0.7-0.5-1.3-0.5c-0.5,0-0.9,0.2-1.2,0.5C70.1,30.5,70,31,70,31.6v3.7c0,0.6,0.2,1,0.5,1.4
		c0.3,0.3,0.7,0.5,1.2,0.5C72.2,37.1,72.6,37,73,36.6z"/>
	<path class="st1" d="M84.8,26.9c0,0,0.1-0.1,0.2-0.1H88c0.1,0,0.2,0,0.2,0.1s0.1,0.1,0.1,0.2v12.6c0,0.1,0,0.2-0.1,0.2
		S88,39.9,88,39.9h-2.8c-0.1,0-0.3-0.1-0.3-0.2L81,33.4c0,0,0-0.1-0.1,0c0,0,0,0,0,0.1l0,6.3c0,0.1,0,0.2-0.1,0.2
		c0,0-0.1,0.1-0.2,0.1h-2.9c-0.1,0-0.2,0-0.2-0.1s-0.1-0.1-0.1-0.2V27.1c0-0.1,0-0.2,0.1-0.2s0.1-0.1,0.2-0.1h2.8
		c0.1,0,0.3,0.1,0.3,0.2l3.8,6.4c0,0,0,0.1,0.1,0c0,0,0,0,0-0.1l0-6.3C84.7,27,84.8,26.9,84.8,26.9z"/>
	<path class="st1" d="M92,39.9c0,0-0.1-0.1-0.1-0.2V27.1c0-0.1,0-0.2,0.1-0.2s0.1-0.1,0.2-0.1H97c1,0,1.9,0.2,2.7,0.5
		c0.8,0.4,1.4,0.8,1.8,1.5c0.4,0.6,0.6,1.4,0.6,2.2v4.7c0,0.8-0.2,1.6-0.6,2.2c-0.4,0.6-1,1.1-1.8,1.5c-0.8,0.4-1.7,0.5-2.7,0.5
		h-4.8C92.1,39.9,92,39.9,92,39.9z M95.5,36.9h1.6c0.4,0,0.8-0.2,1-0.5s0.4-0.8,0.4-1.3v-3.5c0-0.5-0.1-1-0.4-1.3
		c-0.3-0.3-0.6-0.5-1.1-0.5h-1.6c-0.1,0-0.1,0-0.1,0.1L95.5,36.9C95.4,36.9,95.4,36.9,95.5,36.9z"/>
	<path class="st1" d="M105,39.5c-0.8-0.4-1.4-1-1.8-1.8c-0.4-0.8-0.7-1.6-0.7-2.6v-3.5c0-1,0.2-1.8,0.7-2.6s1-1.3,1.8-1.7
		c0.8-0.4,1.7-0.6,2.7-0.6c1,0,2,0.2,2.7,0.6c0.8,0.4,1.4,1,1.8,1.7c0.4,0.8,0.7,1.6,0.7,2.6v3.5c0,1-0.2,1.9-0.7,2.6
		c-0.4,0.8-1,1.3-1.8,1.8c-0.8,0.4-1.7,0.6-2.7,0.6C106.7,40.2,105.8,40,105,39.5z M108.9,36.6c0.3-0.3,0.5-0.8,0.5-1.4v-3.7
		c0-0.6-0.2-1-0.5-1.4c-0.3-0.3-0.7-0.5-1.3-0.5c-0.5,0-0.9,0.2-1.2,0.5c-0.3,0.3-0.5,0.8-0.5,1.4v3.7c0,0.6,0.2,1,0.5,1.4
		c0.3,0.3,0.7,0.5,1.2,0.5C108.2,37.1,108.6,37,108.9,36.6z"/>
	<path class="st1" d="M113.5,39.9c0,0-0.1-0.1-0.1-0.2V27.1c0-0.1,0-0.2,0.1-0.2s0.1-0.1,0.2-0.1h2.9c0.1,0,0.2,0,0.2,0.1
		c0,0,0.1,0.1,0.1,0.2v4.5c0,0,0,0.1,0,0.1c0,0,0,0,0.1,0l3.2-4.6c0.1-0.1,0.2-0.2,0.4-0.2h3.3c0.1,0,0.2,0.1,0.2,0.2
		c0,0,0,0.1-0.1,0.2l-3.9,5.4c0,0,0,0.1,0,0.1l4,6.9c0,0.1,0.1,0.1,0.1,0.2c0,0.1-0.1,0.2-0.2,0.2h-3.3c-0.2,0-0.3-0.1-0.3-0.2
		l-2.6-4.6c0,0,0-0.1-0.1-0.1s0,0-0.1,0.1l-0.8,1.2c0,0,0,0.1,0,0.1v3.2c0,0.1,0,0.2-0.1,0.2c0,0-0.1,0.1-0.2,0.1h-2.9
		C113.6,39.9,113.6,39.9,113.5,39.9z"/>
</g>
<rect x="69" y="29.1" class="st1" width="5.2" height="8.6"/>
<polyline class="st2" points="70.8,30.6 73.7,33.5 70.8,36.4 "/>
</svg>
